<svg xmlns="http://www.w3.org/2000/svg" xmlns:xlink="http://www.w3.org/1999/xlink" width="1602" height="813" viewBox="0 0 1602 813">
  <defs>
    <clipPath id="clip-path">
      <rect id="Masque" width="1602" height="813" stroke-width="1" fill="#fff" stroke="#707070" transform="translate(-141 51)"/>
    </clipPath>
    <linearGradient id="linear-gradient" x1="0.5" y1="-0.716" x2="0.5" y2="0.647" gradientUnits="objectBoundingBox">
      <stop offset="0" stop-color="#fff"/>
      <stop offset="0.014" stop-color="#f6f6f8"/>
      <stop offset="0.07" stop-color="#ccced6"/>
      <stop offset="0.13" stop-color="#a0a4b2"/>
      <stop offset="0.2" stop-color="#7a7f94"/>
      <stop offset="0.28" stop-color="#5a617b"/>
      <stop offset="0.35" stop-color="#424a67"/>
      <stop offset="0.43" stop-color="#313a5a"/>
      <stop offset="0.52" stop-color="#273052"/>
      <stop offset="0.63" stop-color="#242d4f"/>
      <stop offset="1" stop-color="#0e0d1c"/>
    </linearGradient>
    <radialGradient id="radial-gradient" cx="202.651" cy="189.52" r="211.193" gradientTransform="translate(10.072 18.37) scale(0.95 0.903)" gradientUnits="userSpaceOnUse">
      <stop offset="0.25" stop-color="#fff"/>
      <stop offset="0.64" stop-color="#fff" stop-opacity="0.722"/>
      <stop offset="0.73" stop-color="#fff" stop-opacity="0.502"/>
      <stop offset="0.82" stop-color="#fff" stop-opacity="0.29"/>
      <stop offset="0.9" stop-color="#fff" stop-opacity="0.129"/>
      <stop offset="0.96" stop-color="#fff" stop-opacity="0.031"/>
      <stop offset="1" stop-color="#fff" stop-opacity="0"/>
    </radialGradient>
    <radialGradient id="radial-gradient-2" cx="166.279" cy="158.015" r="174.975" gradientTransform="translate(8.264 15.316) scale(0.95 0.903)" gradientUnits="userSpaceOnUse">
      <stop offset="0" stop-color="#ababab"/>
      <stop offset="0.84" stop-color="#d4d4d4"/>
      <stop offset="1" stop-color="#f4f4f4"/>
    </radialGradient>
    <radialGradient id="radial-gradient-3" cx="148.973" cy="139.285" r="155.191" gradientTransform="translate(7.404 13.501) scale(0.95 0.903)" gradientUnits="userSpaceOnUse">
      <stop offset="0" stop-color="#fff"/>
      <stop offset="0.16" stop-color="#fff" stop-opacity="0.788"/>
      <stop offset="0.39" stop-color="#fff" stop-opacity="0.51"/>
      <stop offset="0.6" stop-color="#fff" stop-opacity="0.29"/>
      <stop offset="0.78" stop-color="#fff" stop-opacity="0.129"/>
      <stop offset="0.92" stop-color="#fff" stop-opacity="0.039"/>
      <stop offset="1" stop-color="#fff" stop-opacity="0"/>
    </radialGradient>
    <radialGradient id="radial-gradient-4" cx="161.84" cy="914.072" r="168.61" gradientTransform="translate(8.043 88.601) scale(0.95 0.903)" xlink:href="#radial-gradient-3"/>
    <radialGradient id="radial-gradient-5" cx="133.23" cy="887.332" r="138.831" gradientTransform="translate(6.622 86.009) scale(0.95 0.903)" xlink:href="#radial-gradient-3"/>
  </defs>
  <g id="night" transform="translate(141 -51)" clip-path="url(#clip-path)">
    <g id="scene_night" transform="translate(-148.361 -8.035)">
      <g id="Calque_21" data-name="Calque 21" transform="translate(0.057)">
        <rect id="Sky-2" width="1610.009" height="510.325" fill="url(#linear-gradient)"/>
        <g id="Calque_29" data-name="Calque 29" transform="translate(419.607 177.499)">
          <g id="Moon">
            <ellipse id="Moon_Ray" data-name="Moon Ray" cx="201.007" cy="191.017" rx="201.007" ry="191.017" opacity="0.8" fill="url(#radial-gradient)"/>
            <g id="Moon-2" data-name="Moon" transform="translate(34.728 27.865)">
              <ellipse id="Background" cx="166.279" cy="158.015" rx="166.279" ry="158.015" transform="translate(0 0.22)" fill="url(#radial-gradient-2)"/>
              <g id="White_Shapes" data-name="White Shapes" transform="translate(1.265 18.983)">
                <path id="Tracé_2400" data-name="Tracé 2400" d="M723.469,362.332c-1.035,2.186-.69,5.464-1.265,7.759-1.15,4.59-1.265,13.66-8.164,13-.92,3.715.575,8.2-.92,11.693-1.035,2.295-4.025,3.278-4.945,5.355-.69,1.53-.115,3.5-.23,5.136-.345,3.825-2.3,6.338-6.67,7.212-3.22.656-7.245-1.093-4.6-4.153-3.45,2.732-4.255-.437-4.025-3.388-2.875,2.186-5.175,1.311-6.095-1.311-1.265-3.825,1.725-6.338,2.99-9.507-1.84,1.967-3.565,4.043-6.555,3.06a39.922,39.922,0,0,0-2.76-11.474c-1.84-4.917-1.725-2.841-6.67-3.606,0-2.623.345-7.54-2.07-9.07,1.15-4.48,1.15-8.633-1.38-6.775-3.1,2.186-2.07.656-1.955-5.136,0-1.639-.23-3.169-.115-4.59,0-2.623.69-5.136.115-7.759-.69-2.841-2.3-3.388-3.335-4.808-1.61-2.186-1.725-4.153-2.875-7.322-.69-2.076-1.265-1.311-1.84-1.639a4.416,4.416,0,0,1-1.725-2.076,42.534,42.534,0,0,0-.115-16.173c.8-.109,1.495-.219,2.185-.328,3.795-.656,10.349.109,13.454-2.076,2.645-1.967.69-3.606,4.485-2.732,2.645.656,3.68,3.169,4.485,4.808,1.15,2.186-1.035,2.841,2.645,3.169,3.1.219,3.68-1.421,3.1-4.152,2.185,1.421,5.865,3.278,7.015,5.792.92,1.858.23,4.48.92,6.447,1.84,5.573,6.21,4.59,9.2.219.23,2.841.69,6.01-1.15,8.305s-5.06,2.732-6.555,5.355c-2.185,3.825-3.22,8.524-.575,12.458.92-2.95,3.68-.984,5.635-1.967a6.827,6.827,0,0,0,3.565-5.9c0-1.53-2.76-4.043-.92-6.01s5.4-.109,6.67,1.421c3.1-2.076.8-5.682.92-8.633,2.185-.109,5.75.656,7.935,0,4.485-1.421,3.335-5.792,3.1-9.726a81.277,81.277,0,0,0-2.53-17.375,36.469,36.469,0,0,1-.8-4.917c-12.529-41.066-42.024-75.561-81.76-95.618-.575,2.295-2.76,4.48-2.3,7.322a12.175,12.175,0,0,1,3.68,3.5c.575,1.2.575,3.388,1.265,4.371,2.185,3.06,9.084,4.48,9.889,8.633.345,1.967-1.035,2.513,0,4.7,1.38,2.841,4.14,3.278,1.15,5.136-.69.437-2.3-.219-3.1,0-1.495.437-2.415,1.748-2.99,1.967-1.84.765-4.83.328-5.06,3.5a11.733,11.733,0,0,1-1.955.109c.345,1.639.69,8.414,2.3,8.961-.575,4.153,10.119,2.841,13.569,4.371.345,3.06-2.53,3.934-3.68,5.682,4.945.328,22.884-1.2,15.294,8.305-1.725,2.076-2.185,1.639-5.06,1.858a54.547,54.547,0,0,0-7.36,1.421c-4.6.874-9.544-.765-14.719-.984-.46-1.748-5.75-10.163-5.865-4.7-.8-.219-1.84.109-2.76-.328,0,.765-.69,1.639-.575,2.4-1.15-.219-4.025-1.093-5.29-.546s-.115,2.076-1.38,2.732c-2.415,1.311-7.245.328-7.589,4.262,4.14.546,6.44-2.841,9.429-1.858.115,0-.23,1.967-.115,1.967a9.163,9.163,0,0,0,3.45,0c1.265.765,1.84.546,1.61,2.623,3.335.546,6.21-2.186,9.544-1.53,2.99.656,1.955,1.748,3.91,3.5,0-.219.115-.437.115-.656,3.22-.656,3.335,2.513,5.175,3.715a5.655,5.655,0,0,0,4.6.874c1.035-.219,1.84-2.076,2.875-1.967,7.13.983-2.875,7.868-3.22,9.726,4.37.765,4.6-3.825,7.7-2.623,1.725.656,4.945,7.322,6.67,1.2a9.6,9.6,0,0,1,4.025,6.01c.115,2.4.69,1.421-1.955,3.06-2.875,1.748-11.959,2.513-13.8,5.136-.46-5.136-.575-11.146-4.6-14.643,0,1.639.8,4.48-.46,3.934s-2.3-3.825-3.22-5.245c-1.38-2.623-5.75-8.305-6.095-5.9-.575,5.136,6.555,9.944,8.854,14.752,1.495,3.278,1.15,8.305,1.035,10.928a31.249,31.249,0,0,0,.115,3.278,9.146,9.146,0,0,0-1.84.765c-3.795,2.076-3.1,3.934-2.99,8.087,3.565.109,2.645-3.06,4.6-4.59a2.417,2.417,0,0,1,.69-.437c.23,1.311.46,2.732.8,4.043,1.15,5.464,2.53,13.223-.92,18.031-.69.984-2.76,3.5-3.68,1.858s-.575-5.573-1.035-7.977c-.345-1.748-.69-3.278-1.725-3.606-.575-.219-.92,1.093-1.495.983s-.8-.656-1.38-1.311c-.92-.874-1.15-1.858-1.955-1.093-1.035.874-.8,6.666-2.07,5.136-2.07-2.732-1.495-7.431-2.645-10.819-.345-1.2-1.84-3.388-2.645-3.715-1.035-.437-.69,1.2-1.725,1.421-1.495.328-4.025-3.06-5.635-3.934-2.875-1.639-3.91.219-6.21.874-.8.219-1.495-.109-1.84.656s.23,1.967-.115,2.732-1.265.656-1.725,1.858a14.088,14.088,0,0,0-.69,3.825c0,1.53.115,1.421.92,2.623a9.708,9.708,0,0,1,2.185,4.48c1.15,4.262,2.53,4.371,4.485,6.884.69.874,2.53,3.169,2.185,4.262-1.035-1.53-2.875-2.186-2.875,1.093,0,.874.8,1.858.92,2.732a6.018,6.018,0,0,1-.575,3.169c-1.38-.656-1.725-2.4-2.875-.219a22.109,22.109,0,0,0-1.035,3.934c-.345,1.858-.115,2.076-1.035,3.825s-1.955,3.606-2.875,5.355c-.345-.546-.575-1.093-.92-1.639-3.335,3.5-1.15,8.961-2.3,12.895-.575,2.295-3.565,4.59-4.715,4.48-.8-.109-.92-.765-1.84-.219s-1.725,1.967-2.76,2.4c-1.955.983-3.22-.765-2.3-3.06a15.943,15.943,0,0,1,4.83-6.447c.575-.546,2.415-1.967,2.53-3.06.115-.874-.92-1.421-1.15-1.967-.345-1.639,1.265-3.715.23-5.355-1.84,1.2-2.185.328-2.76-.765a4.877,4.877,0,0,1-2.185.437,32.421,32.421,0,0,1,1.495,3.5c-2.3,2.841-2.875-.656-4.83,1.748.23.328.115.984.345,1.2-1.725,2.186-2.07.656-3.68.656-.92,0-.92.328-1.725.874-1.15.656-.8.656-2.07.437-2.185-.328-4.37,1.53-6.555,1.639s-5.75.219-6.785,2.513a3.544,3.544,0,0,1,.115,1.093c-.115.437-.8.656-.8,1.093-.23,1.53.69.765,1.61.546a25.964,25.964,0,0,1,2.76-.765c.92-.109,1.61.765,2.53.983,1.15.328,3.335.656,1.84,2.4-.575.656-1.61.546-2.07,1.421a2.464,2.464,0,0,0,.575,2.295c-.69,1.311-1.495,1.639-.8,3.06.345.765,1.265,1.093,1.035,2.186-1.84,1.093-3.565,1.748-5.175,1.2-.69,2.513-9.2.546-10.579,1.53-1.495,1.2.345,2.951.23,4.371,0,.328.345.765.23.984-.345.656-1.725.874-1.955,1.421-.23.765.575.765.8,1.421.46,1.311-.69,2.841-.46,4.152.345,1.639,5.29.765,1.15,3.715a20.442,20.442,0,0,0-5.175,5.136c-1.61,2.186,0,2.4-.345,4.262a6.509,6.509,0,0,1-.8,1.53,1.569,1.569,0,0,0-.8-1.2c-.69-.437-1.265.109-1.955-.328s-.8-1.311-1.84-1.748a9.368,9.368,0,0,0-2.875-.765c-1.15,0-1.035.109-1.495,1.093a5.024,5.024,0,0,1-2.3,2.513c-2.415,1.53-1.955,3.06-2.645,5.355-.23.874-.8,3.169-1.61,2.95.46-1.311.115-3.278-2.07-2.623-.575.219-.8,1.2-1.265,1.53a2.507,2.507,0,0,1-2.185.328c-.345-1.53.575-2.4-1.265-2.841a8.542,8.542,0,0,0-2.875.219c-1.265.219-1.265.546-2.76.437s-3.1-.328-4.6-.437c.115-.546.23-1.093.345-1.53-3.795-1.858-5.635,3.388-8.164,4.48a5.251,5.251,0,0,1-5.175-1.311c-.575-.765-.23-1.2-1.15-1.748s-2.07-.109-2.99-.656a2.553,2.553,0,0,1-1.38-1.748,16.615,16.615,0,0,0,2.3-2.623c1.955-.546,3.45-.109,5.4.437.69.219,2.645.983,3.335.546s.115-1.639.46-2.076c.46-.765,1.495-.874,2.3-1.2,2.185,0,4.14-.656,5.98-3.825,1.15-2.186,2.53-7.431-.69-8.742-2.645-1.093-4.83,4.262-8.624,3.169-1.265-4.917-5.75-2.186-10,.109a6.974,6.974,0,0,1-.69-.984c-1.265-2.076-4.025-2.513-5.75-4.152s-4.485-4.48-6.9-3.278c-.115,0-.46.765-.575.983-.345.328-1.035,0-1.38.328-.92.874-.345.983.345,1.311a5.043,5.043,0,0,0-2.415,5.027c-2.415-3.278-8.624-5.9-8.509-10.709.115-3.606,3.795-4.043,3.45-7.54-3.335-.546-11.959,3.5-14.719-.328s1.15-1.967,1.495-4.262a32.5,32.5,0,0,1,.46-4.7c1.495-3.715,3.22-6.12,8.624-8.305,3.335-1.311,11.269-1.53,11.844-5.573-4.485-1.2-8.509,2.076-13.454,1.421,1.61-2.841,5.52-4.371,7.359-6.229a19.148,19.148,0,0,1-7.359-1.421c1.84-5.792,8.969-8.2,10.579-13.878,1.265-4.371.575-10.381.345-15.19-3.795-.109-1.035,2.076-2.415,4.153-.46.656-.46,2.513-.92,3.388s-2.53.765-2.875,1.53c-1.38,3.06-1.035,6.338-3.795,8.961-3.1,2.951-6.67,1.748-9.889,3.5s-4.14,6.666-8.394,5.792a10.793,10.793,0,0,1-.8-2.732c-2.645.874-1.84,2.95-4.945,3.5-1.035.109-2.875-2.732-5.4-2.295a18.31,18.31,0,0,0-.69,9.289c.575,3.388,3.22,6.447,2.99,9.835-9.084.328-18.629,1.639-18.4-8.633a10.318,10.318,0,0,0-4.83.109c.8,3.5-1.15,8.086-4.37,4.371-1.84-2.076,2.3-7.1-3.565-5.682.69,2.95-.92,4.808-4.14,4.7-.46,3.06-.115,6.557-.345,9.726-7.819.328-11.039.765-14.719-5.245-1.265-2.186.115-3.5-2.415-5.355-1.495-1.093-4.6.546-6.555-.874a13.085,13.085,0,0,1-2.645-3.388c11.5,86.661,94.747,148.058,185.943,137.143,3.565-.437,7.13-.983,10.579-1.639a10.751,10.751,0,0,0,4.255-3.5c2.76-4.043,2.645-11.8,2.3-16.938-7.245.656-5.635-9.507-12.189-7.649-.69,4.153-1.38,10.928-7.474,11.037-3.45.109-3.335-2.186-5.635-3.06-4.37-1.749-1.035-1.421-5.29-.874-5.06.546-9.314,3.169-14.834,2.076-.23,0-.345-.109-.575-.109,1.495-.656,2.185-1.748,4.025-1.967,2.415-.328,4.37-1.53,2.185-3.606-2.415-2.295-1.38-1.967.92-3.278.69-.437,1.15-.983,1.725-1.311,1.035-.546,2.415-.437,3.22-1.53s.345-2.841.575-4.043a4.016,4.016,0,0,1,.69-1.967,9.319,9.319,0,0,0,1.725-.219c2.185-.765,1.38-1.53,2.875-2.623,2.53-1.748,6.095-1.53,8.739-2.951a3.453,3.453,0,0,0,.8-.546c2.53.109,6.9,1.311,7.475-1.53-.8-.328-2.3-.219-2.3-1.2s1.495-1.311,2.185-1.749c1.15-.656,3.68-2.513,1.955-3.934a1.53,1.53,0,0,0-1.84-.328c1.265-.765,2.76-1.311,4.14-2.076,1.725,1.311,4.715,1.858,6.785,2.076,1.725.219,4.6-.765,5.865.656s.23,4.48-1.38,5.245c4.14,2.4,18.974-.874,12.764,6.557-3.22,3.825-13.339,3.278-6.9,7.431,3.1,1.967,5.29,1.749,5.52,4.917a19.369,19.369,0,0,1-1.495,6.666c-1.035,1.748-4.6,2.186-2.875,4.371,1.15,1.421,3.795.437,5.06,1.53-1.84,2.4-5.52,1.858-7.474,3.825s-.23,5.027-1.15,7.322c66.465-18.124,114.238-73.381,120.052-138.859C726,359.632,724.388,360.507,723.469,362.332ZM616.985,410.851c0,1.53.115,3.06.23,4.59-1.38-.109-2.875-.109-4.255-.109,1.61-2.153,1.265-3.683,4.025-4.448Zm-50.367,43.492h0c.115-.109.115,0,.23,0Zm-6.785-14.971c.345-1.858,4.14-2.076,5.29-3.06a3.736,3.736,0,0,0,1.38-2.513c-.115-.983-.92-.765-1.495-1.748-.8-1.53.575-3.825.69-5.355a6.933,6.933,0,0,0-.345-2.295,4.686,4.686,0,0,0,.69-1.749c3.1-1.093,1.38.546,2.185,1.639s2.76.219,4.37.109c-.46.983-.8,2.076-1.15,3.06-.115,1.311.23,1.967-.69,3.606a19.56,19.56,0,0,1-4.6,4.59c-1.84,1.639-1.725,1.421-4.14,2.4a3.2,3.2,0,0,0-2.07,1.639c-.115.033-.23-.077-.115-.3Zm24.953,13a23.371,23.371,0,0,1,1.495-2.076,23.343,23.343,0,0,0-1.495,2.109Zm15.064-13.223a37.88,37.88,0,0,0-4.715,1.748.9.9,0,0,0-.23-.656c3.565-.984,7.13-1.639,10.579-2.951,0,2.546-3.335,1.344-5.635,1.891Zm9.544-9.726c0,.656-2.415,1.421-4.485,2.295a5.79,5.79,0,0,0-2.53-2.076c-.575-.328-1.725-.546-1.265-1.639,1.725-.765,5.865-2.186,7.7-4.262a38.505,38.505,0,0,1,6.21.109c.8,3.093-3.22,4.841-5.635,5.606Zm12.534-12.567a10.743,10.743,0,0,0,1.38-.984,4.537,4.537,0,0,1,.115-.546c.69-.328.69,1.421.575,3.278a14.682,14.682,0,0,0-2.07-1.716Zm46.8-18.686c-1.035,3.388.575,5.245-2.3,8.305-4.715,5.136-5.06,4.48-.69,9.616,2.3,2.732,3.565,7.759-2.3,6.994-4.37-.546-3.45-7.431-7.359-2.841-1.035,1.311.8,2.623-1.265,3.934-1.495.983-4.945-.328-5.865-1.421-2.07,3.278-4.255,2.186-6.21.328.8-.874,1.495-1.748,2.07-2.513s.46-1.639,1.035-2.186c.92-.765,1.495,0,2.185-.219,1.61-.546,4.025-2.513,5.865-3.934s3.565-2.295,5.4-3.825c.8-.656,3.22-2.513,3.91-3.934.8-1.748.345-2.732.345-4.371-.23-4.371,2.875-7.1,5.635-10.163-.115-1.53-.92-3.388-.8-5.027.115-1.967,0-.328.575-2.513.115-.328.115-.656.23-.874v3.278c.23,1.748,1.265,2.841,1.61,4.262.92,3.748-1.035,3.967-2.07,7.136Z" transform="translate(-396.2 -205.3)" fill="#fff"/>
                <path id="Tracé_2401" data-name="Tracé 2401" d="M518.133,256.688c-.23-.109,0-.546,0-.765s0-1.2-.575-1.093c-.92.219.115,1.53,0,2.076s-.8.874-1.15,1.093a2,2,0,0,0-.8,1.311,2.979,2.979,0,0,1-1.61,2.076c-.345.109-1.035.219-1.265,0s.115-.765.115-1.093,0-.437-.23-.546-.345.109-.575,0-.23-.109-.345-.328-.115-.328-.46-.328-.69.874-1.035.437.23-1.2.23-1.639a.764.764,0,0,0-.345-.656c-.23-.109-.345.109-.69,0s-.8-.765-1.15-1.093c-.575-.437-1.15-.328-1.84-.546-.23-.109-.46-.219-.575-.109s-.115.328-.345.328a1.529,1.529,0,0,0-.69.109c-.23.109-.46.328-.69.437s-.115.219,0,.437a1.136,1.136,0,0,1,.23.874c0,.765.345.874.8,1.421.115.219.575.656.46.874-.23-.328-.69-.546-.92,0a4.527,4.527,0,0,1,.115.546c0,.219-.115.328-.23.546-.46-.219-.46-.546-.92-.219a2.281,2.281,0,0,0-.46.656,1.812,1.812,0,0,1-.345.656l-.92.874-.345-.328c-1.035.437-.115,1.748-.345,2.4a1.562,1.562,0,0,1-1.15.874c-.23,0-.345-.109-.575,0s-.345.437-.575.546a.526.526,0,0,1-.463.093.5.5,0,0,1-.342-.312.631.631,0,0,1-.115-.437,1.906,1.906,0,0,1,1.15-1.311c.115-.109.69-.328.69-.546s-.345-.328-.345-.437c-.115-.328.345-.765,0-1.093-.575.219-.69,0-.8-.219h-.69a2.71,2.71,0,0,1,.46.765c-.69.546-.92-.219-1.495.328a.392.392,0,0,1,.115.328c-.46.437-.575.109-1.15.109-.23,0-.23.109-.46.219a.9.9,0,0,1-.575.109c-.69-.109-1.265.437-1.955.437s-1.725.219-1.955.874c0,.109.115.219.115.328s-.23.219-.115.328c0,.437.23.219.575.109l.69-.328c.23-.109.575.109.8.109s1.035,0,.8.546c-.115.219-.46.219-.46.437a.922.922,0,0,0,.345.546c-.115.328-.23.437.115.765s.46.219.575.437a2.675,2.675,0,0,1-1.38.656c.115.656-2.53.984-2.76,1.311s.575.656.8.983c0,.109.23.109.23.219s-.345.437-.23.546.345.109.46.219c.345.219.345.656.69.874s1.38-.437,1.035.656a2.677,2.677,0,0,0-.115,1.639c.115.546.575.437.92.765s.23.546.345.765.46.437.575.765c.115,0,.92-.437.92-.656a.4.4,0,0,0-.23-.328c.345-.546.46-.109.8,0s.575-.328.92-.437c.115.219.345.437.46.656a3.808,3.808,0,0,1,.69.656,3.719,3.719,0,0,1,.345,1.2.818.818,0,0,1-.115.874c-.115.437.115.328.23.656s-.575.874-.46,1.421c0,.109.115.219.115.437s-.345.656-.23.984.575.219.8.437c-.23.328-1.15,1.2-.46,1.421a1.176,1.176,0,0,0,1.035-.437.652.652,0,0,0-.115-.765c.46-.546.69.437,1.265.437s1.265-.765,1.495-1.093c.46-.546-.115-.874.46-1.311a2.529,2.529,0,0,1,.92-.546,3.188,3.188,0,0,1,1.38.328c.23.219.345.656.69.874a.716.716,0,0,0,.8-.328c.115-.328-.23-.328-.345-.546-.115-.437.575-.656.69-1.093.115-.656-.8-1.093-.8-1.748,0-.328.46-.656.345-.983a1.292,1.292,0,0,0-.92-.765c.575-.437,1.38-.656,1.955-1.093-.23-.328-.8-.437-1.15-.656a4.269,4.269,0,0,0-1.15-.219c-.23,0-.575,0-.575-.219.345-.219,1.15-.765,1.15-1.2,0-.109-.115-.219-.23-.328a2.489,2.489,0,0,0-.575-.437c-.115-.328.345-.328.345-.656s-.23-.656.46-.874a8.574,8.574,0,0,0,1.035.983c.46.437,1.035.109,1.495-.328v-.109c.23-.109.92.874,1.15.983a1.631,1.631,0,0,0,1.725-.109,2.944,2.944,0,0,0,2.07.874,2.555,2.555,0,0,0,1.725-1.311c0-.109-.115-.219,0-.328s.46,0,.575,0a3.676,3.676,0,0,0,1.15-.546,3.555,3.555,0,0,1,1.15-.437c.115-.109.69-.328.69-.437a.988.988,0,0,0-.345-.546c-.46-.656.345-.874.92-1.2-.115-.219-.46-.437-.575-.656s0,0,0-.328a2.45,2.45,0,0,1,.23-1.2c.23-.437.345-1.2-.46-1.093s-.69,0-.575-.765v-.546c0-.109.345-.546.23-.874s-.575-.546-.8-.765a2.465,2.465,0,0,1-.46-1.093c-.115-.437-.345-.219-.46-.328s-.345-.219-.46-.328a5.589,5.589,0,0,0,1.725-2.513c.345-.546,1.61-1.311,1.035-1.967C518.594,256.579,518.363,256.907,518.133,256.688Z" transform="translate(-382.098 -200.706)" fill="#fff"/>
                <path id="Tracé_2402" data-name="Tracé 2402" d="M521.052,217.056a.148.148,0,0,1,0-.219s0-.437-.23-.437,0,.546,0,.765-.345.328-.46.437-.23.328-.345.437c-.115.328-.23.656-.575.765-.115,0-.345.109-.46,0s0-.328,0-.437,0-.109-.115-.219-.115,0-.23,0a.112.112,0,0,1-.115-.109.112.112,0,0,0-.115-.109c-.115,0-.23.328-.345.218s.115-.437.115-.546,0-.219-.115-.219h-.23c-.115,0-.23-.328-.46-.437s-.46-.109-.69-.219-.115-.109-.23,0,0,.109-.115.109h-.23c-.115,0-.115.109-.23.219s0,.109,0,.219a.392.392,0,0,1,.115.328c0,.328.115.328.345.546s.23.219.115.328c-.115-.109-.23-.219-.345,0s0,.109,0,.219,0,.109-.115.219c-.115-.109-.115-.219-.345-.109s-.115.109-.115.219,0,.109-.115.219l-.345.328-.115-.109c-.345.109,0,.656-.115.874s-.23.328-.46.328h-.23c-.115,0-.115.109-.23.219s-.23,0-.345-.109v-.109a.483.483,0,0,1,.46-.437s.23-.109.23-.219a.112.112,0,0,0-.115-.109.5.5,0,0,0,0-.437c-.23.109-.23,0-.345-.109h-.23c.115.109.115.219.23.328-.23.219-.345-.109-.575.109v.109c-.115.109-.23,0-.46,0s-.115,0-.23.109-.115,0-.23,0a2.468,2.468,0,0,0-.69.219c-.23.109-.69.109-.69.328v.109s-.115.109,0,.109.115.109.23,0a.411.411,0,0,0,.23-.109h.345c.115,0,.345,0,.23.219s-.115.109-.115.109a.377.377,0,0,1,.115.219c0,.109-.115.219,0,.328s.115.109.23.109a.891.891,0,0,1-.46.219c0,.219-.92.328-1.035.437s.23.219.345.328.115,0,.115.109-.115.109-.115.219.115,0,.115.109.115.219.23.328.46-.219.345.219a.472.472,0,0,0,0,.546c0,.219.23.109.345.328s.115.219.115.328.115.219.23.328.345-.109.345-.219a.112.112,0,0,0-.115-.109c.115-.219.115,0,.345,0s.23-.109.345-.109.115.109.23.219.23.109.23.219a.63.63,0,0,1,.115.437v.328c0,.109,0,.109.115.219s-.23.328-.23.546v.109a1.057,1.057,0,0,0-.115.328c0,.109.23.109.23.219s-.46.437-.115.546.345-.109.345-.219v-.328c.115-.219.23.109.46.109s.46-.328.575-.437,0-.328.23-.437a.887.887,0,0,0,.345-.219c.115-.109.345,0,.46.109s.115.219.23.328a.44.44,0,0,0,.345-.109c0-.109-.115-.109-.115-.219s.23-.219.23-.437-.345-.437-.345-.656.115-.219.115-.328-.115-.219-.345-.328c.23-.219.46-.219.69-.437a.892.892,0,0,0-.46-.219c-.115-.109-.23-.109-.46-.109s-.23,0-.23-.109.46-.219.46-.437,0-.109-.115-.109-.115-.109-.23-.109.115-.109.115-.219-.115-.219.115-.328l.345.328c.115.109.345,0,.575-.109h0c.115,0,.345.328.46.328a.54.54,0,0,0,.575,0,1.073,1.073,0,0,0,.8.328,1.141,1.141,0,0,0,.575-.437v-.109h.23a.892.892,0,0,0,.46-.219c.115-.109.23-.109.46-.219l.23-.109a.333.333,0,0,0-.115-.219c-.23-.219.115-.328.345-.437,0-.109-.115-.109-.23-.219s0,0,0-.109a.631.631,0,0,1,.115-.437c.115-.109.115-.437-.115-.437s-.23,0-.23-.219v-.219c0-.109.115-.219.115-.328s-.23-.219-.345-.328-.115-.219-.23-.437-.115-.109-.115-.109a.112.112,0,0,1-.115-.109,6.1,6.1,0,0,0,.69-.874c.115-.219.575-.437.345-.765C521.282,217.056,521.167,217.056,521.052,217.056Z" transform="translate(-379.037 -204.27)" fill="#fff"/>
                <path id="Tracé_2403" data-name="Tracé 2403" d="M598.182,256.886a.148.148,0,0,1,0-.219s0-.437-.23-.437,0,.546,0,.765-.345.328-.46.437-.23.328-.345.437c-.115.328-.23.656-.575.765-.115,0-.345.109-.46,0s0-.328,0-.437,0-.109-.115-.219-.115,0-.23,0a.112.112,0,0,1-.115-.109s0-.109-.23-.109-.23.328-.345.219.115-.437.115-.546,0-.219-.115-.219h-.23c-.115,0-.23-.328-.46-.437a4.975,4.975,0,0,0-.69-.219c-.115,0-.115-.109-.23,0s0,.109-.115.109h-.23c-.115,0-.115.109-.23.219s0,.109,0,.219a.392.392,0,0,1,.115.328c0,.328.115.328.345.546s.23.219.115.328c-.115-.109-.23-.219-.345,0s0,.109,0,.219,0,.109-.115.219c-.115-.109-.115-.219-.345-.109s-.115.109-.115.219,0,.109-.115.219l-.345.328-.115-.109c-.345.109,0,.656-.115.874s-.23.328-.46.328h-.23c-.115,0-.115.109-.23.219s-.23,0-.345-.109v-.109a.5.5,0,0,1,.345-.437s.23-.109.23-.219a.112.112,0,0,0-.115-.109.5.5,0,0,0,0-.437c-.23.109-.23,0-.345-.109h-.23c.115.109.115.219.23.328-.23.219-.345-.109-.575.109v.109c-.115.109-.23,0-.345,0s-.115,0-.23.109-.115,0-.23,0a2.467,2.467,0,0,0-.69.219c-.23.109-.69.109-.69.328v.109s-.115.109,0,.109.115.109.23,0a.41.41,0,0,0,.23-.109h.345c.115,0,.345,0,.23.219s-.115.109-.23.109.115.109.115.219-.115.219,0,.328a.363.363,0,0,0,.23.109.891.891,0,0,1-.46.219c0,.219-.92.328-1.035.437s.23.219.345.328.115,0,.115.109-.115.109-.115.219.115,0,.23.109.115.219.23.328.46-.219.345.219a.472.472,0,0,0,0,.546c0,.219.23.109.345.328s.115.219.115.328.115.219.23.328.345-.109.345-.219a.112.112,0,0,0-.115-.109c.115-.219.115,0,.345,0s.23-.109.345-.109.115.109.23.219.23.109.23.219a.63.63,0,0,1,.115.437v.328c0,.109,0,.109.115.219s-.23.328-.23.546v.109a1.058,1.058,0,0,0-.115.328c0,.109.23.109.23.219s-.46.437-.115.546.345-.109.345-.219v-.328c.115-.219.23.109.46.109s.46-.328.575-.437,0-.328.23-.437a.887.887,0,0,0,.345-.219c.115-.109.345,0,.46.109s.115.219.23.328a.44.44,0,0,0,.345-.109c0-.109-.115-.109-.115-.219s.23-.219.23-.437-.345-.437-.345-.656.23-.219.115-.328l-.345-.328c.23-.219.46-.219.69-.437a.891.891,0,0,0-.46-.219c-.115-.109-.23-.109-.46-.109s-.23,0-.23-.109.46-.219.46-.437,0-.109-.115-.109-.115-.109-.23-.109.115-.109.115-.219-.115-.219.115-.328l.345.328c.23.109.345,0,.575-.109h0c.115,0,.345.328.46.328a.54.54,0,0,0,.575,0,1.073,1.073,0,0,0,.8.328,1.141,1.141,0,0,0,.575-.437v-.109h.23a.892.892,0,0,0,.46-.219.44.44,0,0,1,.345-.109.411.411,0,0,0,.23-.109.333.333,0,0,0-.115-.219c-.23-.219.115-.328.345-.437,0-.109-.23-.109-.23-.219v-.109a.631.631,0,0,1,.115-.437c.115-.109.115-.437-.115-.437s-.23,0-.23-.219v-.219c0-.109.115-.219.115-.328s-.23-.219-.345-.328-.115-.219-.23-.437-.115-.109-.115-.109a.112.112,0,0,1-.115-.109,6.1,6.1,0,0,0,.69-.874c.115-.219.575-.437.345-.765C598.3,256.886,598.182,256.995,598.182,256.886Z" transform="translate(-367.508 -200.575)" fill="#fff"/>
                <path id="Tracé_2404" data-name="Tracé 2404" d="M599.97,293.094a3.491,3.491,0,0,0-3.1-.437c-2.3-1.311,1.725-1.093,1.61-2.076s-3.565-3.06-5.06-3.825c-1.955-1.093-3.22-.437-4.83-1.093h.575c.115,0,.46.109.345-.219s0-.219.23-.219h.23c.115,0,.23.109.345,0s.23-.219.23-.328.23-.109.345-.219.115-.109.115-.219a.112.112,0,0,1,.115-.109,4.732,4.732,0,0,0,1.035.546c.23.109.575.546.8.328,0-.219-.115-.219-.115-.328s.23,0,.23,0,.46,0,.345-.219-.575.109-.8.109-.345-.219-.46-.328a.9.9,0,0,0-.575-.219.977.977,0,0,1-.8-.437c0-.109-.115-.328,0-.437s.345,0,.46,0,.23,0,.23-.109v-.219a.112.112,0,0,1,.115-.109c.115,0,.115-.109.115-.219s-.345-.219-.23-.328.46,0,.575,0a.411.411,0,0,0,.23-.109v-.219c0-.109.23-.328.345-.437s.115-.437.115-.656v-.219c0-.109-.115,0-.115-.109v-.251c0-.109-.115-.109-.23-.219h-.23a.44.44,0,0,1-.345.109c-.345,0-.345.219-.575.328s-.23.219-.345.219c.115-.109.23-.328,0-.328s-.115.109-.23.109-.115,0-.23-.109.23-.219,0-.328-.115-.109-.23-.109-.115,0-.23-.109-.23-.219-.345-.219l.115-.109c-.23-.328-.69,0-.92,0a.359.359,0,0,1-.345-.328v-.219c0-.109-.23-.109-.23-.219a.2.2,0,0,1,0-.328.167.167,0,0,1,.23,0,.638.638,0,0,1,.575.328s.115.219.23.219a.112.112,0,0,0,.115-.109s.345.109.46,0c-.115-.219,0-.219,0-.328v-.219c-.115.109-.23.109-.23.219-.23-.219,0-.328-.115-.546a.112.112,0,0,0-.115.109c-.23-.109-.115-.219-.115-.328s0-.109-.115-.219,0-.109,0-.219-.23-.437-.23-.656a.764.764,0,0,0-.345-.656h-.23v.219c.115.109.115.109.115.219v.328c0,.109,0,.328-.23.328s-.115-.109-.23-.109-.115.109-.23.109-.23-.109-.345,0,0,.109-.115.219a1.517,1.517,0,0,1-.345-.437c-.23.109-.46-.874-.575-.874s-.23.219-.345.328,0,.109-.115.109-.115-.109-.23-.109a.112.112,0,0,1-.115.109q-.172,0-.345.328c-.115.219.23.437-.23.328a.54.54,0,0,0-.575,0c-.23.109-.115.219-.23.328a.364.364,0,0,1-.23.109l-.23.219s.23.328.345.328a.112.112,0,0,0,.115-.109c.23.109,0,.109,0,.328s0,.109.115.219h-.345c-1.955.109-3.795-1.093-5.635-1.093-2.645,0-4.485,1.967-6.9,2.4-1.495.328-3.22-.437-4.83.219-1.15.437-2.185,1.639-2.07,2.186q-3.515-1.047-7.13-1.748c-1.035.765-.92,1.967-1.035,2.841a2.662,2.662,0,0,0,.69,2.186c.23.328.8.765.115,1.2-1.265-.109-4.37-.765-5.98,0-.575.328-.69.656-1.035.984s-.46.983-.69,1.421c-.8.656-1.495.109-2.645.656-1.725.656-2.07,1.639-3.795,1.2a22.51,22.51,0,0,0,1.725-3.278c.575-1.421-1.15-1.639-3.45-1.311-.115.109-.23.219-.23.328-.8-.109,1.725-3.06,1.955-3.825.46-1.748-1.035-1.967-3.45-1.967,1.15-1.639,1.61-4.262.345-4.808-2.3-.983-5.98.109-8.394,1.2-.46.219-.8.656-1.265.874-.69.109-.8-.437-1.265-.546a14.5,14.5,0,0,0-4.37.328c-1.495.219-2.645.109-4.14.328a11.5,11.5,0,0,0-3.335.874c-1.035.656-1.15,1.311-1.61,2.186-1.38,2.295-3.91,2.841-6.44,3.715-.345.983-.8,1.967-1.265,2.951-.69.983-.115.219-1.15,1.093-1.84,1.748-2.53,3.06-4.485,4.808-2.415,2.186-4.255,4.808-2.185,4.59,2.415-.219,1.38.328-.69,3.278-.575.874-.92,1.748-1.495,2.513a19.126,19.126,0,0,0-2.645,4.043c-.575,1.748,0,2.513.115,3.5.115,1.639-.46,2.732-.92,4.7-.345,1.311.23,1.093.345,1.421a2.733,2.733,0,0,1,.23,1.639c-3.45,3.5-5.29,8.2-7.015,12.458-1.38,3.169-4.485,7.1-3.335,10.818.345-.656.92-2.513,1.38-1.748s0,2.732-.115,3.715c-.115,1.748.23,6.12,1.15,4.917,2.07-2.513-.115-7.212.345-10.491.345-2.186,2.185-4.7,3.1-6.12a32.693,32.693,0,0,0,3.1-6.338c1.265-3.169,3.22-7.759,6.555-9.289.69-.328,2.645-.983,2.645.109s-1.61,3.06-2.07,4.48c-.345.984-.69,1.967-.345,2.4s.92-.328,1.15-.109.23.656.345,1.093c.23.765,0,1.311.575,1.2.8-.219,2.645-3.278,2.76-2.076.23,2.076-1.725,4.371-2.185,6.557a5.513,5.513,0,0,0,.115,2.732c.345.546.69-.437,1.38-.219.92.328,1.035,2.841,1.61,3.825,1.035,1.748,2.07,1.093,3.565,1.421.46.109.8.546,1.265.219s.46-1.093,1.035-1.421.92.109,1.495-.546a14.409,14.409,0,0,0,1.725-1.858c.575-.874.46-.765.345-1.639a7,7,0,0,1,.345-3.06c.8-2.623.115-3.06-.115-5.027-.115-.656-.345-2.4.345-2.951,0,1.093.69,2.076,1.955.328.345-.437.23-1.2.46-1.748a4.519,4.519,0,0,1,1.38-1.53c.575.765.115,1.858,1.495.984a13.58,13.58,0,0,0,1.84-1.748c.8-.874.8-1.093,1.84-1.639s2.3-1.311,3.335-1.967a4.269,4.269,0,0,1-.115,1.2c2.99-.765,3.68-4.371,5.52-6.12,1.15-1.093,3.45-1.311,4.025-.874s.23.656.92.656,1.61-.546,2.3-.437c1.38.109,1.495,1.421.23,2.295a10.531,10.531,0,0,1-4.715,1.967c-.46.109-1.955.328-2.415.874s0,.983-.115,1.421c-.345.984-1.84,1.639-1.955,2.732,1.38,0,1.265.437,1.265,1.2a2.494,2.494,0,0,1,1.265.437l.345-2.295c2.185-.765,1.265,1.2,3.1.546,0-.219.23-.546.23-.765,1.61-.656,1.38.328,2.185.765.46.328.575.109,1.265.109s.575-.109,1.265.437c1.035.874,2.875.546,4.025,1.093s3.1,1.639,4.485.656a2.372,2.372,0,0,1,.345-.546c.23-.219.575-.109.8-.328.69-.765-.115-.656-.69-.765a9.979,9.979,0,0,1-1.725-.437c-.575-.219-.575-.874-1.035-1.2s-1.495-1.311-.115-1.858c.575-.219,1.035.219,1.61-.109a1.566,1.566,0,0,0,.46-1.421c.8-.546,1.38-.437,1.495-1.421.115-.546-.345-.874.23-1.53a3.934,3.934,0,0,1,3.22.984c1.15-1.2,5.06,2.513,6.095,2.4s.8-1.639,1.38-2.4c.115-.219.115-.546.23-.546.345-.219,1.265.109,1.495-.109s0-.546.115-.983c.23-.874,1.38-1.311,1.61-2.076.345-.984-2.53-1.967.575-2.295a12.247,12.247,0,0,0,4.485-1.093c1.495-.656.8-1.2,1.61-2.186a8.978,8.978,0,0,1,2.07-1.093c.69-.437,1.265-.984,1.955-1.421a5.363,5.363,0,0,0-2.76-1.311c-.345,0-.8.546-.92.656-2.07-.328-.575-.765-.575-1.53s-1.38-.983-2.3-1.311a19.8,19.8,0,0,0,1.61-1.311c.575-.656.575-1.093,1.61-1.639a12.918,12.918,0,0,1,4.025-1.093,7.432,7.432,0,0,1,3.1,0c1.61.219,1.15-.328,2.415-.437s3.565,1.093,5.4,1.2c.575,0,.92-.219,1.38-.219,1.15.109,2.645,1.093,3.91.983,1.495,0,.575-.983,1.725-1.2,1.15.656,4.6,3.388,5.52,2.076C602.27,295.28,600.89,293.75,599.97,293.094Zm-15.524-11.146h0c.23-.109.23-.219.345-.328a2.281,2.281,0,0,1,.46.656c.115-.109.115-.328.23-.437v-.656s.345.437.46.328.115,0,.115-.109.115-.109.115-.219.115.109.23.109.23-.109.345.109l-.345.328c-.115.219,0,.328.115.437s-.345.328-.345.437-.115.437.115.546a.657.657,0,0,0-.23.765,1.358,1.358,0,0,0,.575.546h.115v.219l.115.109a10.372,10.372,0,0,1-2.3-1.53,1.638,1.638,0,0,1-.115-1.311Z" transform="translate(-382.979 -198.755)" fill="#fff"/>
              </g>
              <g id="Grey_Shapes" data-name="Grey Shapes" transform="translate(0.23)">
                <path id="Tracé_2405" data-name="Tracé 2405" d="M615.281,230.767a16,16,0,0,0-5.4-1.53c4.14-.546,4.485-3.06,1.84-5.573s-7.819-2.295-11.154-3.825c.92-3.278,5.52-.983,5.635-4.59-7.474-3.606-19.549-5.027-28.058-5.682a12.41,12.41,0,0,1-1.035-2.623c5.865-4.7,7.245-13.878.805-18.249a163.985,163.985,0,0,0-16.444-.765c-42.437-.018-83.264,15.431-114.073,43.165h0c-.69.656-1.38,1.2-2.07,1.858v-.142a.112.112,0,0,1-.115.109,12.816,12.816,0,0,0-1.265,1.2h0a14.4,14.4,0,0,0-1.84,1.858v.109c-.46.437-.92.983-1.38,1.421h0c-2.185,2.186-4.37,4.48-6.44,6.884h0c-25.255,28.46-39.068,64.509-38.982,101.737.92,3.169,3.335,5.9,6.9,4.7s1.61-2.732,2.99-5.136c2.415-4.371,4.485.983,8.624.219a5.956,5.956,0,0,0-1.84-6.01,8.327,8.327,0,0,1,4.025.328c4.83,1.093,9.2,2.732,14.489,1.967,9.774-1.311-2.185-3.5-4.715-4.918a9.637,9.637,0,0,0,6.555-5.9c1.38-4.043.115-3.715,4.485-5.573,3.1-1.311,5.52-2.186,4.14-6.229-.92-2.841-4.14-3.715-4.945-6.884,3.795-.219,9.2,1.2,12.189-1.093,3.565-2.841,1.955-7.649-3.1-8.087-.345-2.841-.115-6.884,4.025-6.12V296.3c-8.049-.437,1.15-6.557.46-8.086-.575-1.311-3.68-.328-4.485-.984-1.38-.983-.23-1.53-.92-2.732-1.725-2.732-2.53-4.59-2.3-7.649a5.969,5.969,0,0,1,1.495-.437c4.14,8.742,11.154,3.388,17.364,1.858,1.15-.328.69-1.2,2.07-1.2,2.415.109,4.6,2.295,6.9,2.732,3.68.656,5.175-.219,6.555-3.5.69-1.858.575-4.153,1.61-5.464,1.955-2.295,4.025-.874,6.555-1.53,4.715-1.311,5.52-4.371,5.29-8.961-5.175-.219-10.349,0-15.524,0,2.3-.219,2.645-2.186,2.3-4.262-2.415-.109-5.06.328-7.36-.109-3.795-.546-3.22-.109-2.76-3.169.23-1.53,2.76-4.48,1.035-5.792a14.6,14.6,0,0,0,.69-4.48,14.8,14.8,0,0,0,2.185.219c2.07.765,4.14,1.421,6.325.656a6.294,6.294,0,0,0,2.3-1.093,2.4,2.4,0,0,0,1.035-.219c1.955-1.093,1.725-3.715,4.14-4.043,1.15-3.388,3.68-2.4,6.325-3.825,2.185-1.311,1.955-4.043,3.91-4.7,0,6.338-.23,9.07,7.474,10.928,5.4,1.421,5.75.437,7.245-3.715,3.91-1.53,1.265-5.682,6.67-6.338-.23-.874-.115-2.623-.345-3.5,5.29.546,10.349-3.388,16.1-2.186a34.36,34.36,0,0,0,2.07-8.2c-5.4-1.311-7.474-2.076-10.464-6.557a14.951,14.951,0,0,1,4.945-.546c-2.185,4.371,5.98,5.245,8.854,6.229,5.4,1.858,4.945,1.748,4.6,6.229,2.415.765,9.2.765,11.039,2.513s-.23,3.715,1.61,5.682c3.335,3.715,6.44,0,5.865,5.682-.345,3.606-3.565,6.01-4.025,9.07,5.75.765.69,8.742-.23,11.583-1.265,3.715-1.84,9.179-.8,12.567a16.676,16.676,0,0,0,4.715,6.884c1.15,1.093,2.3,1.421,2.99,2.4.23.328,0,2.295.46,3.06s2.185,1.2,2.875,1.967c.8.984.69,2.186,1.495,3.169,4.485,5.136,15.524,8.414,22.079,9.726-3.795-1.53-8.739-7.1-12.3-9.835-2.99-2.295-3.91-3.388-1.265-7.868,4.37-7.54,14.6-3.06,19.319-8.742,6.67-7.868-10.809-13.878-4.715-20.544,1.955-2.076,4.14-.546,6.095-.765,3.795-.328,7.7-2.513,7.7-6.775l-.69-.219c2.875-3.5,11.959,2.186,16.444-1.748C612.866,237.979,613.671,236.231,615.281,230.767ZM463.146,249.453c-2.76-.328-2.76,2.295-4.945,3.169s-4.255-1.311-5.52-1.311c-5.06,0-10.579,4.918-9.889-2.295,2.99.437,5.52-1.53,8.509-2.186,2.53-.546,5.75.328,8.394.109s3.68-.765,5.29-.219a2.935,2.935,0,0,0-1.84,2.732Z" transform="translate(-395.3 -187.929)" fill="#fff" opacity="0.52"/>
                <path id="Tracé_2406" data-name="Tracé 2406" d="M480,320.956c-2.76-2.732-14.144-5.9-10-11.255-2.185-.984-5.4.328-7.475-1.2-1.15-.874-2.07-4.59-2.3-5.9-.575-2.295,1.61-2.295-1.15-3.5-1.15-.437-4.025.437-5.4.328-.23-1.748-1.38-5.027-3.68-2.732-1.15,1.2-.345,5.245,0,6.666l-1.61.437c-1.725-2.4-7.934,0-6.9,3.5,3.22.983,6.555-.219,9.774.437,2.99.656,2.645,1.093,4.14,3.169a18.975,18.975,0,0,0,2.07,3.169c.115,1.748.575,2.513-2.07,2.295-2.415-.328-1.84-2.076-3.45-3.5-2.415-2.076-9.889-2.841-12.074.437l.69.328c-4.485.328-5.06,5.9.46,6.666,1.035.109,1.265-.984,2.53-1.2,1.725-.219,5.865-.546,7.36.328A17.713,17.713,0,0,1,454.7,323.8c.23.546.92.983,1.265,1.967.23.765-.8,2.186-.46,3.278.46,1.421,4.37,4.153,6.44,1.858,1.61-1.858-2.07-3.169-.345-5.9,1.265-1.967,4.14.546,3.795-2.732,2.415,1.858,5.06,2.076,7.359,3.715,1.725,1.2,1.725,3.5,4.025,4.043C477.357,325.328,473.677,321.831,480,320.956Z" transform="translate(-389.042 -177.911)" fill="#fff" opacity="0.52"/>
              </g>
            </g>
            <ellipse id="Gradient_3" data-name="Gradient 3" cx="147.765" cy="140.421" rx="147.765" ry="140.421" transform="translate(25.413 62.288)" fill="url(#radial-gradient-3)"/>
            <ellipse id="Gradient_2" data-name="Gradient 2" cx="160.529" cy="152.551" rx="160.529" ry="152.551" transform="translate(40.477 50.158)" fill="url(#radial-gradient-4)"/>
            <ellipse id="Gradient_1" data-name="Gradient 1" cx="132.126" cy="125.56" rx="132.126" ry="125.56" transform="translate(61.981 79.663)" fill="url(#radial-gradient-5)"/>
          </g>
        </g>
      </g>
      <g id="Calque_27" data-name="Calque 27" transform="translate(1401.24 234.203)">
        <path id="Tracé_2407" data-name="Tracé 2407" d="M1427.3,289.131l-27.115-13.616L1367.415,255.3l-32.646-11.474-24.85-29.5h-16.1s-18.4,16.392-20.124,18.577-17.824,12.567-17.824,12.567L1218.5,266.773l104.4,115.834,104.448-6.5Z" transform="translate(-1218.5 -214.32)" fill="#0b0b1a"/>
      </g>
      <g id="Calque_17" data-name="Calque 17" transform="translate(0.057 65.35)">
        <path id="Tracé_2408" data-name="Tracé 2408" d="M0,362.611l42.064-8.447s28.748-5.387,35.3-4.808,31.048-22.5,37.6-21.528,33.129-6.076,41.294-13.113,38.5-39.1,45.181-40.553,66.489-32.783,74.918-27.319,24.148,25.844,36.625,28.03,31.117-9.463,45.537,10.206,58.324,45.044,68.19,54.212,55.944,34.433,59.336,49.229-2.633,26.7,18.4,40.924,76.688,28.215,86.129,32.663,38.189,13.113,46.733,10.2,80.495-19.145,92.339-21.855,28.748-44.662,36.89-55.12,37.258-35.7,37.258-35.7,15.455-.5,20.768,8.054,7.865,12.13,7.865,12.13,31.611-52.989,37.028-53.437,6.072-15.823,26.621-27.757,66.408-56.136,69.858-58.507,61.245-17.036,68.766-14.425,30.714,14.4,33.578,13.736,39.753-13.474,52.069-27.975,39.155-58.059,39.155-60.321,26.069-31.9,29.139-33.111,39.442-27.789,46.928-29.068,29.9-19.408,29.9-19.408,58.646,47.1,51.747,56.824,19.261,35.788,19.261,35.788,43.7,34.226,47.986,42.52,3.45,13.19,17.249,32.237,75.9,96.262,79.724,96.984,41.052,2.918,53.1,6.557,75.447,29.232,75.447,29.232V900.376H0Z" transform="translate(0 -69.54)" fill="#182b36"/>
        <path id="Tracé_2409" data-name="Tracé 2409" d="M1055.123,114.275c3.45,2.186,8.82,12.392,14.949,15.3s14.949,4.371,19.94,2.557,10.349-7.289,19.158-2.186,21.849,15.659,24.148,15.3,0-12.021,3.45-11.3,11.5,12.392,14.57,13.485,20.009,3.573,16.685-1.289c-6.819-10.01-8.176-15.43-5.75-19.746,6-10.72-51.6-56.923-51.747-56.824s-22.424,18.118-29.9,19.408-43.87,27.855-46.928,29.068C1040.565,120.471,1051.673,112.09,1055.123,114.275Z" transform="translate(154.977 -69.537)" fill="#436b8a" opacity="0.9"/>
        <path id="Tracé_2410" data-name="Tracé 2410" d="M267.8,282.444c7.428.732,36.568,4.688,40.4,8.174s73.871,75.609,71.433,74.877-66.351-20.4-68.892-20.4-1.771,5.1-7.141,6.557-45.227-25.494-56.726-28.412-24.539,10.928-24.539,10.928,25.3.732,27.6,1.464,46,35.69,54.437,42.979,58.255,18.217,58.255,18.217,72.836,26.227,76.665,35.69,65.925,41.525,81.265,43.711,65.925,3.65,65.925,3.65,53.667,2.186,63.625,0,53.552-21.855,59.739-22.588,46.054-23.309,49.9-28.412-3.07-32.051,0-49.535,15.961-34.7,18.525-34.105h0a39.774,39.774,0,0,0-7.8-.667s-29.1,25.341-37.223,35.788-25.091,52.453-36.89,55.12-83.783,18.938-92.339,21.855-37.292-5.759-46.733-10.2-65.1-18.446-86.129-32.663-15.007-26.128-18.4-40.924-49.447-40.061-59.336-49.229-53.759-34.543-68.191-54.213-33.095-8.021-45.537-10.206-28.185-22.577-36.625-28.03C249.928,246.021,260.37,281.711,267.8,282.444Z" transform="translate(33.333 -54.48)" fill="#fff" opacity="0.1"/>
        <path id="Tracé_2411" data-name="Tracé 2411" d="M814.092,285.727c2.3-1.453,46.767-19.67,50.6-29.133s26.069-29.144,33.739-30.6,7.935-13.244,27.725-13.539c-7.52-2.612-65.327,12.021-68.765,14.425s-49.3,46.53-69.858,58.463-21.193,27.319-26.621,27.756-37.028,53.437-37.028,53.437,64.154-42.924,69.513-45.842S811.792,287.191,814.092,285.727Z" transform="translate(108.527 -56.31)" fill="#fff" opacity="0.1"/>
        <path id="Tracé_2412" data-name="Tracé 2412" d="M967.327,239.423c2.3-3.147,50.6-26.456,50.6-26.456s20.7-39.34,21.469-42.99,23.769-34.237,23.769-34.237,3.829-16.031,7.659-21.495,33.348-15.659,33.348-15.659l22.01-29.046s-22.424,18.118-29.9,19.408-43.87,27.855-46.928,29.068-29.139,30.838-29.139,33.111-26.828,45.809-39.155,60.321S931.875,238.811,929,239.423C929,239.423,965.027,242.592,967.327,239.423Z" transform="translate(139.28 -69.54)" fill="#fff" opacity="0.1"/>
        <path id="Tracé_2413" data-name="Tracé 2413" d="M1226.174,299.984l-71.709,33.636s-52.448,32.663-55.507,33.384-62.866,3.65-62.866,3.65l-59.8,61.2s-9.2,17.484-10.729,19.67S905,521.457,905,521.457l88.165-65.566,69.755-51.732h56.231l26.034-24.041,96.364-60.463,21.078-51.721,12.649-13.113-19.169,7.846Z" transform="translate(135.682 -52.351)" fill="#fff" opacity="0.1"/>
        <path id="Tracé_2414" data-name="Tracé 2414" d="M695,558.4s42.168-71.15,49.826-71.03,18.4-3.038,21.469-11.288,7.67-38.127,7.67-38.127,10.729-34.248,29.9-42.99,31.427-26.227,31.427-26.227,28.369-42.247,46-40.061,32.968-21.134,32.968-21.134,37.557-22.653,42.927-24.806c0,0-38.776,26.227-38.166,32.095s-9.36,16.752-16.26,18.938-26.839,1.464-32.2,8.021-19.169,39.143-26.069,44.356-15.329,5.223-22.228,11.78-27.6,19.67-31.439,29.144-4.6,39.34-4.6,45.9-19.158,14.4-19.158,14.4-19.169,10.316-20.7,16.151-18.157,52.453-18.157,52.453Z" transform="translate(104.197 -49.761)" fill="#fff" opacity="0.1"/>
      </g>
      <g id="Calque_23" data-name="Calque 23" transform="translate(485.348 318.751)">
        <path id="Tracé_2415" data-name="Tracé 2415" d="M422.538,312.953h0q-.276-.59-.517-1.213A1.64,1.64,0,0,0,422.538,312.953Z" transform="translate(-422.019 -289.83)" fill="none"/>
        <path id="Tracé_2416" data-name="Tracé 2416" d="M422.47,312.85l.253.492a.57.57,0,0,0-.253-.492Z" transform="translate(-421.952 -289.727)" fill="#2b789e" opacity="0.2"/>
        <path id="Tracé_2417" data-name="Tracé 2417" d="M422.538,292.15h0q-.276.59-.517,1.213A1.6,1.6,0,0,1,422.538,292.15Z" transform="translate(-422.02 -291.647)" fill="none"/>
        <path id="Tracé_2418" data-name="Tracé 2418" d="M422.47,292.182l.253-.492A.57.57,0,0,1,422.47,292.182Z" transform="translate(-421.952 -291.69)" fill="#2b789e" opacity="0.2"/>
      </g>
      <g id="Calque_16" data-name="Calque 16" transform="translate(0.057 511.452)">
        <path id="Tracé_2419" data-name="Tracé 2419" d="M1222.362,641.311c-15.328-1.945-47.526-29.636-63.625-33.275-7.751-1.759-27.035-18.173-52.138-35.92,14.949-4.775,71.3-22.872,57.5-19.255-15.869,4.153-67.248,12.4-86.854,0-20.434-12.119-42.777-22.435-64.936-26.074-64.4-10.578-193.946,7.649-256.813,6.906-39.465-.459-86.946-10.261-131.482-16.556a12.281,12.281,0,0,0-2.817-3.7,7.523,7.523,0,0,0-3.726-.186c-1.046.208-3.749,1.814-3.933,2.481l-5.232-.645h.8l-4.6-4.371-1.955,1.912-3.806-3.617-3.588,3.41a.167.167,0,0,0,0-.1c-.081-.142,0-.142-.2-.306a.481.481,0,0,0-.138-.087.373.373,0,0,0,0-.109c0-.1-.218-.077-.287-.24s-.138-.164-.276-.328-.391-.208-.448-.251-.241,0-.345-.087a1.109,1.109,0,0,0-.529-.066h0l-.115-.131s0-.186-.138-.186a1.61,1.61,0,0,0-.345.087,1.31,1.31,0,0,0-.46.087c-.15.077-.333,0-.449,0s-.23,0-.3.109-.287.109-.345.219a.708.708,0,0,0,0,.514c0,.131,0,.229.069.284-.138.055-.3.23-.287.273s-.161.12-.161.219v.328a.761.761,0,0,0,.069.35c.069.131.253.186.253.229l-1.6-.131v-8.917L584,502.714v-3.923h.265l-3.818-11.955-3.818,11.955h.287V502.7l-5.152,1.475v7.9l-2.3-.055v-.995c.069,0,.057-.153.138-.186s.149-.284.241-.339,0-.077,0-.142A.474.474,0,0,1,570,510.3a1.982,1.982,0,0,0,.23-.087.641.641,0,0,0,.253-.24c.057-.066,0-.12.138-.131h.138a.425.425,0,0,0,.207-.1c.138-.1.126-.077.172-.175s.1,0,.069-.219,0-.2-.057-.317,0-.12-.172-.262l-.115-.077V508.6c0-.087-.2-.066-.253-.219s-.126-.142-.253-.284a1.053,1.053,0,0,0-.379-.208c-.046-.033-.207,0-.31-.087a1.06,1.06,0,0,0-.448-.055h0l-.1-.109s-.057-.164-.115-.164a1.194,1.194,0,0,0-.31.077.825.825,0,0,0-.391.076.531.531,0,0,1-.23,0l-4.151-3.945-4.6,4.371h.839v3.278l-2.817-2.677-3.749,3.562c-1.15.055-2.369.109-3.53.186s-2.3.12-3.542.153c-.161-.667-2.875-2.273-3.933-2.491a7.485,7.485,0,0,0-3.714.186,12.2,12.2,0,0,0-1.955,2.186c-66.431-2.809-206.779-46.989-309.767-44.29C116.756,471.068.05,531.531.05,531.531v237.35l672.315,71.555,638.795-153.709C1275.926,686.792,1237.691,643.256,1222.362,641.311ZM594.331,513.456h.609v.328l-.828-.077Zm23.884,2.961-3.795-.492a21.977,21.977,0,0,1,3.795.448Zm-9.993-1.268Zm-40.5-3.093v-1.6h.092a2.157,2.157,0,0,0,.23.066h0c.115.131.356.076.4.153s.391.077.391.077a.831.831,0,0,1,.115.251,6.842,6.842,0,0,1-.069,1.016Z" transform="translate(0.007 -468.031)" fill="#273332"/>
        <g id="Groupe_1537" data-name="Groupe 1537" transform="translate(0 12.813)">
          <path id="Tracé_2420" data-name="Tracé 2420" d="M1222.37,640.223c-15.328-1.945-47.526-29.636-63.625-33.275-3.887-.874-10.66-5.464-19.549-12.021-19.169-7.813-35.613-14.184-50.217-19.178l25.3-10.25c-9.694,2.754-32.566,5.562-56.91.863q-4.128-.994-8.119-1.836h0c-26.575-5.562-49.194-5.628-78.126-2.382-55.2,6.2-165.589,29.166-217.911,23.691s-106.943-42.618-158.69-50.268-69.72,10.928-108.461,6-45.629-25.134-127.274-46.989-210.022-16.512-260.826-3.388A686.457,686.457,0,0,0,.219,530.454L0,767.794l672.522,71.555,638.795-153.71C1275.933,685.7,1237.7,642.168,1222.37,640.223Z" transform="translate(0 -479.757)" opacity="0.1"/>
          <path id="Tracé_2421" data-name="Tracé 2421" d="M969.14,558.2l.678-.2Z" transform="translate(145.298 -472.498)" opacity="0.1"/>
          <path id="Tracé_2422" data-name="Tracé 2422" d="M970.18,557.881l.437-.131Z" transform="translate(145.454 -472.521)" opacity="0.1"/>
          <path id="Tracé_2423" data-name="Tracé 2423" d="M969.73,558.012l.517-.142Z" transform="translate(145.386 -472.51)" opacity="0.1"/>
          <path id="Tracé_2424" data-name="Tracé 2424" d="M969,558.22Z" transform="translate(145.277 -472.478)" opacity="0.1"/>
          <path id="Tracé_2425" data-name="Tracé 2425" d="M970.56,557.76l.46-.12Z" transform="translate(145.511 -472.531)" opacity="0.1"/>
          <path id="Tracé_2426" data-name="Tracé 2426" d="M969,558.21h0Z" transform="translate(145.277 -472.478)" opacity="0.1"/>
          <path id="Tracé_2427" data-name="Tracé 2427" d="M972.55,557.169l.4-.109Z" transform="translate(145.809 -472.585)" opacity="0.1"/>
          <path id="Tracé_2428" data-name="Tracé 2428" d="M972.9,557.06h0Z" transform="translate(145.862 -472.585)" opacity="0.1"/>
          <path id="Tracé_2429" data-name="Tracé 2429" d="M973.05,557Z" transform="translate(145.884 -472.591)" opacity="0.1"/>
          <path id="Tracé_2430" data-name="Tracé 2430" d="M971.42,557.529l1.15-.339Z" transform="translate(145.64 -472.573)" opacity="0.1"/>
          <path id="Tracé_2431" data-name="Tracé 2431" d="M972.46,557.19h0Z" transform="translate(145.796 -472.573)" opacity="0.1"/>
          <path id="Tracé_2432" data-name="Tracé 2432" d="M971,557.653l.529-.153Z" transform="translate(145.577 -472.544)" opacity="0.1"/>
        </g>
      </g>
      <g id="Calque_20" data-name="Calque 20" transform="translate(442.353 537.213)">
        <path id="Tracé_2433" data-name="Tracé 2433" d="M389.64,690.5c36.062-15.113,162.4-43.482,207.711-47.874s263.1-14.654,362-49.175,324.2-95.071,406.993-89.247,185.23,36.553,185.23,36.553V807.808H389.64Z" transform="translate(-383.879 -498.986)" fill="#334240"/>
        <path id="Tracé_2434" data-name="Tracé 2434" d="M1166.11,534.973c-86.918,19.242-239.44,80.546-273.938,88.567s-192.037,21.233-287.1,25.134c-69.858,2.9-173.478,33.876-220.441,52.759l5.75,85.236H1552.321V541.123C1376.235,478.266,1281.944,509.511,1166.11,534.973Z" transform="translate(-384.63 -499.396)" opacity="0.1"/>
      </g>
      <g id="Calque_24" data-name="Calque 24" transform="translate(0.057 648.706)">
        <path id="Tracé_2435" data-name="Tracé 2435" d="M915.271,607.736c4.6,2.754,6.6,1.628,9.843-6.273.2-.546-21.274,4.732-24.148,3.278s-90.361,9.835-94.1,8.556-64.212,2.645-73.791,4.371-71.87,6.983-82.22,4.371-36.418-3.453-42.835-3.082-58.2,2.819-66.029,3.082c-10.533.372-58.646-4.109-65.155-1.442s-57.312.852-69.961-.732-84.129,4.043-101,2.186-48.492.809-54.621,1.093-22.619-2.273-30.668-1.093-66.454-2.076-77.574-1.268-41.823,2.535-60.222,1.071S0,622.226,0,622.226l.184,91.432L775.049,701.55s64.729-15.845,132.241-32.98V610.927C907.382,610.927,915.271,607.736,915.271,607.736Z" transform="translate(0 -601.424)" fill="#3d3d3d"/>
        <path id="Tracé_2436" data-name="Tracé 2436" d="M939.074,626.769c-.77-5.464-32.577-4-34.153-5.092s-3.795-.918-6.474-.918-9.97-.721-10.476-1.8-24.6.71-29.392,0-4.6-7.114-4.025-8.939-5.554-3.093-11.12-2.284-16.1.284-14.558-1.541-3.45-3.278-6.463-2.787-15.777-1.4-15.581-1.945c-10.591,3.5-9.843,6.272-9.843,6.272s-7.888,3.191-8.049,3.191v57.644C862.6,649.859,939.477,629.621,939.074,626.769Z" transform="translate(118.281 -601.42)" fill="#474747"/>
        <path id="Tracé_2437" data-name="Tracé 2437" d="M958.435,624.346c-56.346-8.36-43.191-17.146-43.191-17.146S730.75,621.187,690.215,624.346H.18V707.2s60.739,11.015,371.656,5.923c211.034-3.42,370.8-25.953,457.233-46.039.817,0,188.691-36,206.25-39.34C1029.891,628.695,1006.962,631.547,958.435,624.346Z" transform="translate(0.027 -600.888)" fill="#33535e"/>
        <path id="Tracé_2438" data-name="Tracé 2438" d="M902.053,626a104.9,104.9,0,0,1-12.983,1.191l1.61.984Z" transform="translate(133.293 -599.143)" fill="#8fd9e0"/>
        <path id="Tracé_2439" data-name="Tracé 2439" d="M895.747,628l-40.477,7.759c24.148-2.339,45.526-4.666,45.526-4.666Z" transform="translate(128.226 -598.958)" fill="#f0f0e4"/>
        <path id="Tracé_2440" data-name="Tracé 2440" d="M1023.973,629.931l-1.61-.984c-12.2.492-32.773,0-63.9-4.611-56.346-8.36-43.191-17.146-43.191-17.146s-184.494,14-225.029,17.157H.207L0,640.268c50.171,9.54,182.068,17.714,240.334,20.577,79.345,3.89,200.662-5.114,231.135-4.371,10.568.262,40.132.251,76.435-.087l-1.15.087c37.948-.535,69,10.928,73.02,10.37s47.722-4.371,59.8,0,41.972,0,55.2,4.371,225.385-10.392,225.385-10.392l-26.609-18.872c13.489-.831,32.451-2.524,49.953-4.218Z" transform="translate(0 -600.889)" fill="#273332" opacity="0.8"/>
        <ellipse id="Ellipse_824" data-name="Ellipse 824" cx="22.757" cy="1.803" rx="22.757" ry="1.803" transform="translate(554.655 30.463)" fill="#fff" opacity="0.8"/>
        <ellipse id="Ellipse_825" data-name="Ellipse 825" cx="22.757" cy="1.803" rx="22.757" ry="1.803" transform="translate(584.162 37.73)" fill="#fff" opacity="0.8"/>
        <ellipse id="Ellipse_826" data-name="Ellipse 826" cx="22.757" cy="1.803" rx="22.757" ry="1.803" transform="translate(616.497 35.293)" fill="#fff" opacity="0.8"/>
        <ellipse id="Ellipse_827" data-name="Ellipse 827" cx="22.757" cy="1.803" rx="22.757" ry="1.803" transform="translate(616.497 38.32)" fill="#fff" opacity="0.8"/>
        <ellipse id="Ellipse_828" data-name="Ellipse 828" cx="22.757" cy="1.803" rx="22.757" ry="1.803" transform="translate(593.752 40.123)" fill="#fff" opacity="0.8"/>
        <ellipse id="Ellipse_829" data-name="Ellipse 829" cx="22.757" cy="1.803" rx="22.757" ry="1.803" transform="translate(559.438 43.729)" fill="#fff" opacity="0.8"/>
        <ellipse id="Ellipse_830" data-name="Ellipse 830" cx="22.757" cy="1.803" rx="22.757" ry="1.803" transform="translate(569.351 46.614)" fill="#fff" opacity="0.8"/>
        <ellipse id="Ellipse_831" data-name="Ellipse 831" cx="22.757" cy="1.803" rx="22.757" ry="1.803" transform="translate(621.097 44.811)" fill="#fff" opacity="0.8"/>
        <ellipse id="Ellipse_832" data-name="Ellipse 832" cx="17.973" cy="1.421" rx="17.973" ry="1.421" transform="translate(609.736 47.892)" fill="#fff" opacity="0.8"/>
        <ellipse id="Ellipse_833" data-name="Ellipse 833" cx="18.962" cy="1.497" rx="18.962" ry="1.497" transform="translate(609.092 62.831)" fill="#fff" opacity="0.8"/>
        <ellipse id="Ellipse_834" data-name="Ellipse 834" cx="18.962" cy="1.497" rx="18.962" ry="1.497" transform="translate(570.857 58.995)" fill="#fff" opacity="0.8"/>
        <ellipse id="Ellipse_835" data-name="Ellipse 835" cx="18.962" cy="1.497" rx="18.962" ry="1.497" transform="translate(611.035 55.094)" fill="#fff" opacity="0.8"/>
        <ellipse id="Ellipse_836" data-name="Ellipse 836" cx="10.464" cy="0.831" rx="10.464" ry="0.831" transform="translate(645.671 52.351)" fill="#fff" opacity="0.8"/>
        <ellipse id="Ellipse_837" data-name="Ellipse 837" cx="10.464" cy="0.831" rx="10.464" ry="0.831" transform="translate(556.471 55.76)" fill="#fff" opacity="0.8"/>
        <ellipse id="Ellipse_838" data-name="Ellipse 838" cx="10.464" cy="0.831" rx="10.464" ry="0.831" transform="translate(551.872 50.384)" fill="#fff" opacity="0.8"/>
        <ellipse id="Ellipse_839" data-name="Ellipse 839" cx="10.464" cy="0.831" rx="10.464" ry="0.831" transform="translate(585.507 68.6)" fill="#fff" opacity="0.8"/>
        <ellipse id="Ellipse_840" data-name="Ellipse 840" cx="10.464" cy="0.831" rx="10.464" ry="0.831" transform="translate(649.443 62.831)" fill="#fff" opacity="0.8"/>
        <ellipse id="Ellipse_841" data-name="Ellipse 841" cx="18.962" cy="1.497" rx="18.962" ry="1.497" transform="translate(580.85 51.16)" fill="#fff" opacity="0.8"/>
        <ellipse id="Ellipse_842" data-name="Ellipse 842" cx="18.962" cy="1.497" rx="18.962" ry="1.497" transform="translate(559.438 48.198)" fill="#fff" opacity="0.8"/>
        <ellipse id="Ellipse_843" data-name="Ellipse 843" cx="22.757" cy="1.803" rx="22.757" ry="1.803" transform="translate(573.95 34.397)" fill="#fff" opacity="0.8"/>
        <ellipse id="Ellipse_844" data-name="Ellipse 844" cx="22.757" cy="1.803" rx="22.757" ry="1.803" transform="translate(557.909 39.533)" fill="#fff" opacity="0.8"/>
        <ellipse id="Ellipse_845" data-name="Ellipse 845" cx="22.757" cy="1.803" rx="22.757" ry="1.803" transform="translate(601.882 44.811)" fill="#fff" opacity="0.8"/>
        <ellipse id="Ellipse_846" data-name="Ellipse 846" cx="22.757" cy="1.803" rx="22.757" ry="1.803" transform="translate(626.686 30.463)" fill="#fff" opacity="0.8"/>
        <ellipse id="Ellipse_847" data-name="Ellipse 847" cx="22.757" cy="1.803" rx="22.757" ry="1.803" transform="translate(636.656 34.714)" fill="#fff" opacity="0.8"/>
        <ellipse id="Ellipse_848" data-name="Ellipse 848" cx="22.757" cy="1.803" rx="22.757" ry="1.803" transform="translate(631.665 41.336)" fill="#fff" opacity="0.8"/>
        <ellipse id="Ellipse_849" data-name="Ellipse 849" cx="22.757" cy="1.803" rx="22.757" ry="1.803" transform="translate(552.976 35.926)" fill="#fff" opacity="0.8"/>
        <ellipse id="Ellipse_850" data-name="Ellipse 850" cx="22.757" cy="1.803" rx="22.757" ry="1.803" transform="translate(579.125 29.796)" fill="#fff" opacity="0.8"/>
        <ellipse id="Ellipse_851" data-name="Ellipse 851" cx="22.757" cy="1.803" rx="22.757" ry="1.803" transform="translate(592.108 27.993)" fill="#fff" opacity="0.8"/>
        <ellipse id="Ellipse_852" data-name="Ellipse 852" cx="22.757" cy="1.803" rx="22.757" ry="1.803" transform="translate(602.56 31.599)" fill="#fff" opacity="0.8"/>
      </g>
      <g id="Calque_15" data-name="Calque 15" transform="translate(436.477 528.139)">
        <path id="Tracé_2441" data-name="Tracé 2441" d="M1542.162,556.006l1.3,1.453-13.891-.721,1.966,1.552-14.719.82,1.4.765h-9.453l1.415,1.268h-11.3l4.082,1.322-9.521.6,2.449.853-9.13.787,3.07.568-11.12.82,4.347.831-11.177,1.093,4.531.623-15.547,1.5,7.29.8-21.239,4.262,5.543.5-15.823,3.628,3.013.579-16.812,3.792h5.968L1408.9,589.16l5.6-.131-21.987,5.595h7.348l-23.734,6.557,5.957.361-22.056,5.464h8.2l-18.7,5.1,6.785-.273h0l-20.5,5.529h6.267l-21.849,5.464,7.831-.208h0l-18.893,4.71-5.75,3.584h0l.966-5.9-1.794,4.917-4.818-7.923,3.243,7.507-5.462-1.639,5.75,3.683h0l-23.137,3.333,4.818.885-17.467,1.279c-7.509-5.125-20.043-14.818-20.883-22.773,0,0,11.5,9.54,26.448,10.523s19.031-7.431,19.031-7.431-9.119,7.649-26.977.251-17.858-10.775-17.858-10.775,16.559,11.026,33.106,2.109a39.688,39.688,0,0,1-34.567-9.31c.495-4.371.943-8.283.943-10.021,0-2.044-1.23-7.649-2.369-13.354a7.869,7.869,0,0,0,1.84,1.464s-3.99-11.66-3.45-15.485c0,0,8.464,14.993,18.4,17.714,0,0-12.132-10.523-14.213-15.856,0,0,15.121,12.021,29.978,9.66a52.613,52.613,0,0,1-25.16-9.157s24.378,6.065,30.243-3.224c0,0-5.6,6.557-20.7,3.224s-17.536-8.917-17.536-8.917h0c1.15-6.917,2.725-17.583,3.013-23.385,1.541,2.841,3.45,5.365,5.75,6.163a104.179,104.179,0,0,1-7.325-15.037h0s9.2,10.578,29.082,6.185c0,0-13.167.984-27.6-7.944,3.542,2.087,14.052,7.136,25.08,1.191,0,0-10.085,4.469-27.978-5.693h0c-1.15-5.158-2.415-11.1-3.622-15.747h0s8.992,11.179,17.364,10.676c0,0-10.752-6.436-12.316-9.9,0,0,16.168,1.978,20.342-.175-11.637-.885-22.354-2.7-28.587-8.993,0,0,1.472,12.469-17.122,17.758,0,0,16.375-2.492,18.008-11.824,0,0-2.024,12.971-13.8,20.577,0,0,10.913-6.753,14.8-13.922.483,3.683.977,7.759,1.334,11.572,0,0-15.075,13.987-35,11.135a56.078,56.078,0,0,0,20.7-.372c8.636-1.836,11.971-4.273,13.017-5.256-2.38,2.524-14.719,15.124-26.448,18.02,0,0,22.723-5.081,28.242-14.862h0c-.058.251-2.921,12.163-11.43,16.217a23.7,23.7,0,0,0,10.085-7.114c-1.276,5.376-3.116,12.84-4.151,20.238h0c-14.017,8.185-46.606,6.557-46.606,6.557s30.634,5.2,45.1-2.109a99.332,99.332,0,0,1-31.278,17.222s20.135-1.584,32.025-13.736c0,0-4.393,11.507-11.695,16.829a37.277,37.277,0,0,0,11.89-9.584c.713,11.671,1.15,20.9-1.978,26.675l-.816,1.519h0a75.671,75.671,0,0,1-23.47,12.436c-13.983,4.469-36.234,0-36.234,0s22.424,5.464,37.189,3.639c9.521-1.169,14.661-3.7,17.122-5.365-5.278,4.164-21.136,15.4-41.972,18.741,0,0,25.816-3.366,42.823-13.277a4.968,4.968,0,0,1-.092,1.158c-5.4,5.65-18.5,18.807-26.529,22.282,0,0,16.041-6.666,26.161-14.785-.345,6.95-1.023,14.392-4.082,17.648l-1.15-.087.759.481-.38.273-11.384-.678,2.449,1.432-11.43-.688-10.476,1.464h0l2.15-2.011-16.616,1.672,3.45-1.945-16.823,1.88h0l5.612-2.623-16.456,1.7,3.588-1.639-20.331,1.158,4.887-1.432-20.342,1.311h0l3.749-1.65-17.4.984,3.6-1.333-19.7.6h0l7.049-1.421-18.18.874,3.806-4.448-4.462,3.573-2.127-5.256.506,4.579-4.312-1.158,3.013,1.912-10.418-1.989,1.794,2.185L1051.731,637l-8.337.809,2.127-1.694-10.154,1.4.632-2.393-4.243,2.273-5.359-1.311-4.784,1.038h0l2.7-4.032-2.909,2.666c-.253-1.869-.471-4.185-.667-6.557,3.369,2.338,6.727,4.371,8.969,5.759-3.45-2.645-7.1-7.507-9.314-10.753q-.069-1.191-.138-2.295c15.662,6.9,42.547,4.972,42.547,4.972-26.816-3.7-39.258-25.451-39.258-25.451,4.6,5.191,27.334,12.021,27.334,12.021-16.294-5.682-25.057-23.724-25.057-23.724,7.015,4.939,18.4,5.682,18.4,5.682-12.649-6.425-20.319-23.855-20.319-23.855a62.86,62.86,0,0,0,10.683,4.371c-6.658-3.584-16.294-20.26-16.294-20.26,3.323,1.235,12.442,2.59,12.442,2.59-5.439-1.727-18.928-17.3-18.928-17.3,3.68,16.315-15.248,35.34-15.248,35.34,2.633-.492,12.971-6.426,12.971-6.426-.356,4.7-13.8,20.642-13.8,20.642,5.876-1.093,12.868-5.322,12.868-5.322-.529,5.682-21.734,17.3-21.734,17.3,8.59,1.366,20.86-3.945,20.86-3.945,0,5.682-27.173,17.266-27.173,17.266,7.359,2.317,24.712-3.18,24.712-3.18.356,4.819-28.208,14.206-28.208,14.206,17.042,2.186,32.278-3.814,34.429-4.71.184,2.907.345,8.972-1.012,13.332-.115.361-.253.71-.4,1.093l-1.276.557,1.4-3.213-1.69,3.005s-2.76-5.835-2.76-5.7,2.047,5.77,2.047,5.77l-8.371-.47,1,.721-9.1-.448,1.4.8-11.821-.328,1.483,1.093-8.7-.47,2.518.984h-.115l-9.659-.066,1.69.8-7.336-.153.931.59H954.39l1.656.546-6.9-.1,1.3.678-4.427-.24-2.3.984.839-3.278-1.311,3.005-.862-4.24.322,4.24-2.012-.721,1.667,1.2h-8.21l1.046.688-7.371.066,2.081.71-8.406.1,2.024.656-10.211.284,1.817.721H908.5l1.368.645h-5.934l1.219.579H898.5l1.449.645-5.681-.208,1.311.754L889.2,647.6l1.621.732h-7.336l2.38.634-6.474.164,1.748.448-6.9-.24-2.3,1.421,1.449-3.136-2.1,2.59-.391-6.141-.425,6.141-4.4-1.6,3.714,2.4-10.614.47,2.668.579h-8.9l2.829.809h-8.82l2.737.8-9.2.317,2.714.557H833.43l2.5.984-5.508-.306-3.358,1.508L826.818,655l-.69,1.869-3.956-3.42,1.817,3.715-6.417-.361,2.185.94h-9.613l2.7.951-9.843.4,1.84.71-8.831.284,2.645.579-10.119.513,3.116.459H778.739l2.1,1.53H769.827l2.3,1.235-9.3-.415-5.991,2.59,1.023-1.847-2.081,1.508V660.3l-1.081,5.945-3.3-2.12,2.587,2.863-10.993.6,2.2.667-12.258.514,1.874.973-11.292.536,1.69.863-9.6.3.782.983H706.9l1.909,1.093h-8.946l-4.278,1.978h0l2.507-3.2-3.806,3.2v-6.273l-1.334,6.655H682.077l2.656,1.213-13.512.492,3.45.983h0l-10.936.492,2.242.787-8.923.579,1.805.481h0l-13.063.809,3.185.656h-7.21l2.5.688h0l-12.649.885,2.3.667-7.233.219,2,.557h0l-8.544.3,1.817.7h0l-11.2.328,2.748.929h0l-8.245.328,2,.59h0l-6.486-.142,1.679.841h0l-5.531-.164-2.541,1.279h0l2.081-2.1-2.955,2.1.368-3.693-1.311,3.912h0l-.92-2.186v2.186h-7.624l1.633.732h-7.589l-1.759.841h0l.54-2-1.046,2-1.391-3.125.747,3.18h0l-8.13-.175,1.15.732h0l-4.6-.4,1.012.667h0l-5.186-.24.8.557h-5.957l.943.339h0l-3.45-.306-1.725.645h0l1.311-1.344-1.978,1.388v-2.94l-.46,2.94-1.15-.8.46.907h0l-2.886-.164.4.328h0l-3.829-.273.759.459h0l-3.737-.273.552.47h0l-4.128-.273.644.481h0l-4.013-.3.7.481h0l-3.312-.23-2.208.546h0l1.023-1.093-1.414,1.005-.518-1.8.057,1.912h0l-4.784-.295.736.514h0l-3.979-.35s1.276.492,1.288.492h0l-4.036-.229.885.393h0l-2.783-.251.92.35h0l-3.024-.262,1.023.372h0l-3.139-.219,1.023.328h0l-3.921-.2,1.15.339h0l-3.737-.2,1.368.317h0l-5.876-.186,1.713.393h0l-5.635-.24,2.081.415h0l-5.543-.208,2.116.372h0l-2.978-.186-.9.372h0l.954-1.344-1.575,1.18.23-1.89-.6,1.825-.414-.721.276,1.005h0l-2.967-.306.8.4h0l-3-.339q.477.2.931.437h0l-3.369-.35.7.47h0l-2.875-.262.839.361h0l-3.335-.273.667.393h0l-2.518-.175.8.251h0l-1.989-.131.264.208c-49.872,2.185-94.581,3.694-94.581,3.694v344.759H1552.995l.138-489.246ZM1270.78,637.964l-3.668.2-1-.678Zm-22.516,2.12-2.691.667a2.365,2.365,0,0,1-.851-1.322c0-.5-.149-1.53-.287-2.9h0c-.31-3.114-.793-8.01-1.219-12.414a51.943,51.943,0,0,0,19.848,14.206l-12.35.623,5.75.754Z" transform="translate(-379.52 -493.04)" fill="#20403e"/>
      </g>
      <g id="Calque_14" data-name="Calque 14" transform="translate(0 540.167)">
        <path id="Tracé_2442" data-name="Tracé 2442" d="M1061.629,783.061l2.415-.9-2.564-.317.736-1.093-5.75-1.453,2.53-.492-7.8-2.065,2.15-.634-7.911-2.1,2.668-.219c.1,0-7.313-1.945-7.313-1.945l2.714-.656-8.567-2.033,1.989-.415-7.52-2.065,1.667-.459-7.394-2.1,1.529-.6-9.2-2.765,2.07-.415-9.487-2.8,1.794-.306-9.774-3.344h2.3l-8.946-2.841H997.7l-10.959-3.1h2.622l-12.362-3.956,1.943-.35-11.43-3.169,2.1-.219-4.6-.863,1.357-.2-4.427-.951,2.1-.24-4.5-.7,1.564-.208-4.9-1.158,1.345-.12-4.922-1.213,1.587-.087L949.8,733.5l1.15-.251-4.163-.9,1.541-.219-4.6-.951,1.15-.284-3.933-.874h1.15l-4.117-.994,1.242-.24-4.91-1.191,1.4-.229-5.313-1.18,1.633-.12-4.519-.951,2.024-.219-5.5-1.093,1.736-.426-6.244-1.18,1.483-.415-6.819-1.235s.874-.164.9-.2-4.6-.841-4.6-.841l.679-.35-3.565-.852a5.426,5.426,0,0,0,.6-.088c.069,0-3.128-.557-3.128-.557l.724-.262-3.979-.874.655-.306-5.635-.951.471-.339-4.864-.623,1.069-.426L888.9,712.9l.828-.426-6.037-.4.931-.754-9.2.142.828-.743-9.084.339.425-4.852-1.575,5.464-2.2-4.437,1.541,4.612-7.256-1.475,2.081,1.672-9.406-.678,3.162,1.191-8.958-1.027,2.058,1.639-5.75-.2-4.163,1.016v-4.371l-1.736,4.655-2.369-2,1.15,2.1-6.037-.459,2.15,1.005-4.6-.1-7.3,1.3.931-1.322-8.291,2.186-.4-4.12-.173,3.989-2.61-2.186,2.185,2.524-4.8-.4-6.9,1.41.954-1.279-17.916,3.552a5.984,5.984,0,0,0,.908-2.043c-.575.634-12.316,2.819-12.316,2.819v-7.464l-2.012,7.278-4.025-4.732,3.266,5.562-19.365.678,5.945,1.519-23.194.164,4.945,2H715.605l6.348,1.639-19.066.273,5.428,1.475-13.983-.448,2.99,1.093-12.868-.448,3.266.962-16.1-1.464,2.518-4.644-4.6,4.469-1.081-3.792-.391,3.792-8.44-2.186-15.237-1.814,2.369-.579-17.605-2.382,4.45-.863-22.424-3.344,5.209-1.333-25.873-3.071,8.7-1.333L575.8,709.626l2.553-2.011L556.5,704.84l4.692-3.071-26.172-2.186,4.542-1.563-6.313-.929,1.782-.776-7.337-.656,2.518-1.093-7.475.612h0l7.475-7.781-9.05,6.414-2.3-5.191,1.058,6.305-10.729-.962,6.221-1.727-12.569-1.585,6.9-1.639-22.619-.71,1.495-2-24.091,1.3,5.9-2.054-16.041-.109,5.14-2.808-30.715,2.644h0l.793-1.639-35.176,4.677c-1.483-.6-.126-2.186-.126-2.186-1.437-.251-11.5,2.393-11.5,2.393a2.323,2.323,0,0,0,0-1.694c-1.069,1.366-14.8,1.967-14.8,1.967l-1.437-.831-3.243.765.8-3.759-1.564,3.628c-.276-2.186-1.391-1.967-1.391-1.967.943.24.7,2.109.7,2.109s-2.679-.918-2.679-.951-5.75.972-5.75.972l2.3-2.295-3.864,1.825c.31-1.388-1.46-1.847-1.46-1.847,1.414,1.005-.77,2.273-.77,2.273l-3.45-.568-3.68.918-.7-1.574c-1.15,1.541-4.531,1.639-4.531,1.639l1.518-1.093L324,689.749h0l2.426-1.027-14.593,1.093,1.621-.951-11.246,1.18-2.3-.557-4.266.688c-.138-1.093,1.242-1.759,1.242-1.759-.759-.12-2.3,1.683-2.3,1.683l.425-2.721-1,2.8s.069-.12-.311-1.18a1,1,0,0,0-.528-.637,1.1,1.1,0,0,0-.852-.051c1.276-.186,1.288,2,1.288,2l-1.506-.546-2.737.776h0a2.2,2.2,0,0,0,.77-2.022c-.311.929-5.278,2.109-5.29,2.12h0a4.13,4.13,0,0,0,1.886-2.1c-.7,1.016-10.683,2.273-10.717,2.273h0c.081-.579,2.484-1.989,2.484-1.989-1.345,0-8.371,2.109-8.383,2.109h0c.563-.524.529-1.956.529-1.956-.632,1.279-6.831,2.076-6.9,2.076h0l1.023-1.344-9.993,1.5h0a2.974,2.974,0,0,0,1.886-3.453c-.69,3.027-5.75,3.5-5.865,3.508h0a2.215,2.215,0,0,0,.954-1.093c-1.4.9-7.75,1.093-10.844,1.18h-1.713l.54-1.65c-1.874,1.158-19.008,1.727-19.008,1.727l2.3-1.519c-1.863,0-23.389,1.508-23.562,1.519h0l1.621-1.759-21.308,1.388,1.587-6.163-2.9,4.579a2.832,2.832,0,0,0-2.162-2.732c1.483.655.828,4.294.816,4.371h0c-2.392-.415-6.141-2.863-6.141-2.863-1.667,1.005-13.293,1.77-13.73,1.8h0c.4-.415,7.8-3.18,7.8-3.18-.874-.066-20.181,1.759-20.7,1.8h0q3.314-.891,6.52-2.1c-1.15.4-16.9.317-17.007.306h0c.7-.776,6.152-1.486,6.152-1.486-.264-.088-3.024-.339-6.486-.634a85.044,85.044,0,0,1-.115-13.507c.287-3.278.494-7.715.966-12.173,1.414-.164,1.15-3.136,2.955-3.781s3.128-6.163,4.922-7.256c.782-.481,1.069-1.661,1.219-3.1a11.092,11.092,0,0,1,3.036-1.333c3.243-.962,1.794-.645,4.922-2.022s4.255-3.726,5.485-5.1,1.012-2.36,2.909-2.677,2.909-.514,2.909-.514,1.345.951,4.473-2.131,2.691-1.486,3.588-3.726,2.231-.634,1.564-4.677.23-4.043-1.345-6.557.678-2.557-3.576-5.639a24.469,24.469,0,0,0-2.61-1.694c.31-.951.184-.94.483-1.923.575-1.869-4.14-1.388-5.37-4.579s-2.691-2.972-5.267-6.054-7.049-3.726-8.164-4.469-4.473-.426-6.5-1.814-7.6-1.268-9.613-1.093h0l-.333-.372c1.081-.219,2.725-1.005,5.048-3.278,4.6-4.557,3.979-2.186,5.3-5.464s3.312-.94,2.3-6.917.322-5.988-1.989-9.769.989-3.77-5.3-8.338a38.571,38.571,0,0,0-3.875-2.5c.483-1.421.276-1.388.724-2.852.862-2.765-6.129-2.044-7.946-6.764s-3.979-4.371-7.785-8.972-10.441-5.464-12.1-6.557-6.624-.634-9.6-2.677-11.269-1.891-14.236-1.661h0c-1.61-1.825-3.162-3.53-3.162-3.53s-1.771-5.256-3.76-5.475-7.118,1.89-9.6,2.524-8.613-.153-12.592,2.185-8.946.153-12.086,1.41-6.3.634-8.291,2.994-7.785,2.83-9.6,5.824-2.3,10.392-.828,14.009-.333,6.349,1.817,7.824c-3.806,1.464-8.049,6.5-7.946,7.442s-4.14,3.278-4.14,5.977-1,7.4.828,8.972.828,6.141,1.817,9.605,7.13,5.322,7.13,6.436.989,7.1,2.3,9.616,3.979,6.141,5.968,6.141,2.978,2.186,5.129,2.36c1.644.12,4.922,1.978,7.417,2.677l.207.273c3.312,4.043,10.936,2.4,12.592,4.764s12.293,2.251,12.327,2.251c2,3.42,3.369,6.294,3.565,7.977.575,4.786-.678,25.309-3.45,40.367a40.593,40.593,0,0,0-5.75,4.229c1.15-1.65.8-5.365.8-5.365s-.575,2.546-1.437,3.049-14.466.273-14.466.273l1.3-1.978c-1.012.219-22.228.273-22.228.273a1.785,1.785,0,0,0,.609-1.617c-2.3.82-25.126.831-25.126.831V953.555H1082.489ZM118.45,683.476h0a22.477,22.477,0,0,1,2.691-.863c-.058.35-.1.71-.161,1.093ZM66.059,666.429c-.253,1.355-.529,2.666-.8,3.912H64.4a6.592,6.592,0,0,1,1.7-3.912Zm38.948,13.605,3.381-1.257c-1.414-.667-15.88-2.1-15.88-2.1.414-.24,4.6-1.3,4.6-1.3a94.539,94.539,0,0,0-10.464-1.268c-2.127-8.983-2.219-22.806-1.621-29.658.322-3.694.575-8.36.989-13.266,1.437,1.213,3.45,1.989,3.45,2.513a22.7,22.7,0,0,0,1.564,6.557c.9,1.7,2.691,4.153,4.036,4.153s2.012,1.486,3.45,1.6c1.15.077,3.323,1.322,5.014,1.8l.138.186c2.3,2.732,7.383,1.617,8.509,3.213s8.3,1.53,8.325,1.53a17.75,17.75,0,0,1,2.415,5.387c.345,2.907-.3,14.414-1.782,24.107l-16.191-2.186Z" transform="translate(0.05 -513.786)" fill="#1a3331"/>
      </g>
      <g id="Calque_13" data-name="Calque 13" transform="translate(213.138 539.994)">
        <path id="Tracé_2443" data-name="Tracé 2443" d="M1582.205,1046.383l-.092-330.411V712.1l-10.476-6.961s10.269,8.229,9.452,11.114h0c-.414,0-14.731,1.737-21.849-.885l-7.21-2.666s10.66,6.109,14.708,7.223h0c-.4,0-19.549,1.606-24.148-.59-3.059-1.5-3.312-2.885-3.139-3.65-.69,1.748-2.07,6.906,4.4,9.015h0c-.161,0-12.649-1.628-13.707-4.142a7.9,7.9,0,0,0,5.152,5.682h0c-.138,0-9.947-.689-11.614-2.83l2.127,4.371h0s-7.279-5.234-5.75-9.693c0,0-2.173,4.961-.219,8.338,0,0-8.452-6.83-11.568-7.518a22.706,22.706,0,0,1,7.957,10.338h0c-.1,0-11.407-.951-14.271-.776a13.633,13.633,0,0,0-4.209.776s6.635.273,5.911,1.759h0s-18.088-.055-21.768-1.027c1.621.743,5.9,2.645,7.647,2.787h0c-.793.055-13.224.754-11.925-3.858a4.443,4.443,0,0,0,.713,5.114h0s-7.463-7.234-8.9-7.649c0,0,4.462,4.371,5.508,7.955h0s-3.634-4.273-5.508-4.633c0,0,2.886,2.306,3.2,4.863h0c-.115,0-11.5-3.355-15.167-2.186,0,0,6.681.536,7.727,2.863h0c-.276,0-11.695-.339-12.408-2.459,0,0-2.76,3.552-5.152,3.967h0a16.15,16.15,0,0,0,3.634-9.376s-1.391,6.229-3.887,7.507a9.7,9.7,0,0,1-1.046-4.961,17.318,17.318,0,0,0-1.208,5.464s-1.725-9.376-4.312-11.616c0,0,2.3,6.469,2.162,11.573s-31.335-3.18-37.66-2.885c0,0,11.3,3.278,12.362,4.546,0,0-15.145-1.093-18.882-2.12a49.567,49.567,0,0,0,4.071,3.005s-3.381.131-7.371.065c-.9-5.169-1.656-12.676-2.3-20.489,8.5,5.9,17.008,11.157,22.677,14.545-8.739-6.688-17.939-18.982-23.562-27.166-.115-2.011-.23-3.956-.333-5.814,39.592,17.484,107.506,12.578,107.506,12.578-67.846-9.376-99.261-64.364-99.261-64.364,11.5,13.113,69.122,30.3,69.122,30.3-41.2-14.37-63.361-59.982-63.361-59.982,17.72,12.49,46.526,14.37,46.526,14.37-31.9-16.25-51.4-60.31-51.4-60.31a159.7,159.7,0,0,0,27.035,10.928c-16.835-9.059-41.213-51.24-41.213-51.24,8.417,3.125,31.462,6.557,31.462,6.557-13.73-4.371-47.86-43.711-47.86-43.711,9.314,41.241-38.545,89.367-38.545,89.367,6.647-1.257,32.784-16.25,32.784-16.25-.885,11.878-34.751,52.18-34.751,52.18,14.88-2.809,32.543-13.43,32.543-13.43-1.334,14.37-54.944,43.711-54.944,43.711,21.711,3.431,52.724-10,52.724-10,0,14.37-68.685,43.711-68.685,43.711,18.617,5.857,62.487-8.054,62.487-8.054.885,12.184-71.3,35.941-71.3,35.941,43.122,5.464,81.645-9.66,87.061-11.911.414,6.644.793,19.79-1.667,30.39-2.024-3.912-4.117-7.9-4.5-8.327,0,0,2.208,6.174,3.795,10.993-.069.219-.126.437-.2.645a30.078,30.078,0,0,1-2.944,6.447,8.553,8.553,0,0,1-2.231-.2,4.839,4.839,0,0,1-4.128-4.688s-.908,2.961.345,4.371c0,0-11.074-5.136-8.912-11.19,0,0-2.691,5.551,1.438,10.327,0,0-7.9-.677-9.2-2.186s-1.081-2.033-1.15-2-1.932,4.185-4.6,4.775a10.917,10.917,0,0,1-1.391-5.322s-.8,4.5-.759,5.464a18.885,18.885,0,0,1-1.254-8.425s-3.45,6.054-3.691,8.655c0,0-6.129-7.059-4.6-11.7,0,0-3.346,3.508-1.242,10.786,0,0-19.687-4.458-24.574-4.251,0,0,5.313,1.432,4.163,3.409,0,0-10.936-1.519-11.5-7.649,0,0-1.15,4.819-.414,7.278,0,0-10.51-3.082-10.717-6.557s5.83-8.469,5.83-8.469-11.292,4.776-6.9,13.387c0,0-5.681-10.862-4.531-16.118,0,0-2.518,10.316,1.575,16.872,0,0-16.41-3.672-16.237-6.273,0,0-4.312,4.153-3.162,6.557l-12.649-3.278s5.393,3.825,5.462,4.229c0,0-13.6-1.093-14.374-4.164,0,0-.15,3.53,1.437,4.644l-19.192-2.863,7.751,4.743-13.638-3.278-2.932,4.644s-.885-13.725,3.358-17.823a24.323,24.323,0,0,0-7.475,17.823s-6.175-12.294-3.806-19.528c0,0-5.255,7.759-.541,20.446,0,0-13.948-2.852-18.146-5.289,0,0,2.116,5.726,5.439,6.928,0,0-18.663-.1-21.032-1.737s-2.518-2.186-2.518-2.186,1.242,6.557,6.267,6.688l-18.491-.535-6.554,5.671s-8.6-3.694-9.544-5.945a17.505,17.505,0,0,1-.759-5.988s-1.978,11.747,4.381,13.343l-16.018.918c-1.978-2.776-6.577-2.8-8.486-5.606-2.173-3.2-11.5-4.109-13.339-6.557-.311-.393-2.012-.918-4.68-1.53-.161-.47-.287-.874-.357-1.093-.379-1.65-9.671-6.983-9.866-9.19s-5.221-5.693-5.221-6.983-9.084-4.775-10.441-8.272-6.509-3.278-6.773-3.278c-1.529,0-4.6,1.093-5.991,1.093s-6.773,5.7-11.407,7.169-9.671,8.644-11.614,9.376a2.81,2.81,0,0,0-1.069,1.18c-3.013.24-6.244.994-8.164,1.257-3.047.415-4.059,4.371-6.819,5.1s-5.359,5.092-7.245,5.65-4.2,7.092-4.2,7.092h0a26.288,26.288,0,0,0-2.645,2.185c-6.348,5.879-2.737,8.087-5.83,9.376s-2.3,9.376-6.578,15.627-2.127,7.169-2.3,9c-.126,1.257,4.335,5.07,8.222,8.545l-11.959,2.24,4.22,1.814L966.49,803l1.621,1.005a5.771,5.771,0,0,1-7.854-2.819s-.2,3.726-7.279,5.191c0,0,3.289-3.442,5.071-12.84,0,0-6.8,12.742-11.787,14.927,0,0-1.621-17.659-7.854-22.489,0,0,5.382,14.435,3.22,23.79h0l-25.482-5.278,7.06,6.4s-12.994,1.093-15.168-4.852c-1.334-3.661-1.023-5.464-.586-6.251-1.61,1.923-5.75,7.9-1.564,14.512,0,0-10.855,1.508-14.018-1.432s-2.921-4.8-2.921-4.8-1.472,5.464,2.484,8.873h0c-.391,0-22.079-1.355-26.575-5.988,0,0,1.575,5.8,6.325,8.1h0c-.092,0-18.4-1.093-16.8-10.928,0,0-3.162,5.049,4.876,12.021h0L839.216,815.5s3.576,3.8,1.863,6h0c-.092,0-9.142-2.7-8.049-8.48.9-4.7,1.759-5.89,2.047-6.174-.839.667-6.578,5.639-2.84,15.211h0l-20.48-9.289s7.474,6.491,4.6,9.562L799.59,810.115s5.175,9.769,3.231,12.567l-20.193-3.825,7.256,3.278-14.731-4.163,2.806,4.229s-3.956.885-6.256-1.366-2.518-3.825-2.518-3.825.793,5.191,1.23,5.671c0,0-9.832-7.562-7.337-12.381,0,0-4.358,6.732-.4,12.742l-25.758-6.349,5.819,3.716s-23.665-.459-26.448-4.644c0,0-.287,3.278,5.278,5.365l-16.777-2.273-8.118,2.819s-.713-11.332,3.45-14.042c0,0-8.486,4.371-7.337,12.5,0,0-8.44-14.741-11.787-17.342,0,0,4.22,10.873,4.312,18.162,0,0-31.221-2.972-30.174-2.186s4.5,1.672,3.542,2.579-14.662-1.541-14.662-1.541l2.012,2.819s-34.808,1.093-38.143-2.043c0,0,3.6,3.956,4.531,4.087,0,0-16.6-.612-20.124-1.7a20.692,20.692,0,0,1-10.5,5.8s5.9-10.447,3.093-18.916c0,0,.725,12.906-5.462,18.031a71.707,71.707,0,0,0,2.886-8.535s-3.45,8.742-5.462,10.458c0,0-2.3-12.512,3.3-20.162,0,0-8.486,6.24-5.968,20.162,0,0-7.543-11.42-7.474-11.07s4.243,10.72,4.243,10.72-11.649-1.639-19.411-2.393c0,0,5.991,2.754,3.45,5.234,0,0-13.73-1.912-14.2-6.48,0,0,.161,7.212,3.151,7.879l-12.649-1.923-1.495,3.858s-8.578-1.027-9.59-3.945c0,0-.609,4.59.943,5.213,0,0-16.1-4.688-16.1-4.5s6.336,4.5,6.336,4.5l-11.131.481,3.875,1.3H495.86l-1.828-8.01s.333,9.922,0,9.573S485.154,830,485.154,830l6.612,9.289-9.487-3.278,6.681,4.24s-4.807,2.721-9.337,2.251a15.54,15.54,0,0,1-7.337-2.666l3.024,4.371s-16.34-.568-18.111.251c0,0,6.5.382,7.256,1.29l-19.411,2.9H450.3s-.954.284-2.357.656a74.277,74.277,0,0,1-9.429,1.464,6.021,6.021,0,0,1-1.793-.273,3.446,3.446,0,0,0,.459.393A96.324,96.324,0,0,1,364.24,826.6h0c1.219-10.491,2.3-20.118,2.3-24.336,0-4.95-2.978-18.577-5.75-32.455a19.445,19.445,0,0,0,4.485,3.573s-9.717-28.336-8.521-37.624c0,0,20.561,36.411,44.629,43.033,0,0-29.45-25.582-34.5-38.52,0,0,36.74,29.2,72.848,23.473,0,0-30.4-1.2-61.13-22.271,0,0,59.221,14.752,73.48-7.824,0,0-13.627,15.955-50.355,7.824s-42.6-21.637-42.6-21.637c2.84-16.818,6.612-42.727,7.3-56.824,3.749,6.906,8.486,13.037,14.075,14.96,0,0-12.431-21-17.766-36.531h0s22.205,25.713,70.663,15.015c0,0-32.014,2.415-66.949-19.276,8.578,5.07,34.13,17.32,60.946,2.874,0,0-24.493,10.862-67.984-13.834-2.714-12.512-5.853-26.97-8.774-38.247h0s21.849,27.166,42.2,25.964c0,0-26.115-15.648-29.9-24.041,0,0,39.27,4.808,49.447-.4-28.277-2.186-54.322-6.557-69.467-21.856,0,0,3.588,30.292-41.593,43.132,0,0,39.8-6.054,43.7-28.707,0,0-4.9,31.516-33.612,49.972,0,0,26.529-16.392,35.97-33.81,1.15,8.939,2.357,18.85,3.231,28.106,0,0-36.591,34-85.094,27.079a136.86,136.86,0,0,0,50.355-.907c20.986-4.458,29.07-10.381,31.623-12.775-5.75,6.12-35.774,36.739-64.246,43.776,0,0,55.2-12.348,68.639-36.061h0s-6.9,29.5-27.782,39.427c0,0,14.708-4.808,24.516-17.288-3.093,13.113-7.578,31.2-10.108,49.175h0C304.4,738.527,225.2,734.615,225.2,734.615s74.423,12.633,109.576-5.114c0,0-32.3,27.986-76,41.831,0,0,48.918-3.858,77.827-33.373,0,0-10.694,27.953-28.426,40.891,0,0,17.019-8.1,28.886-23.3,1.725,28.412,2.863,50.792-4.818,64.834-.69,1.257-1.334,2.481-1.955,3.694h0a183.835,183.835,0,0,1-56.956,30.226c-33.98,10.829-88.038,0-88.038,0s54.472,13.244,90.373,8.83c23.125-2.852,35.648-9,41.581-13.026-12.822,10.1-51.356,37.406-101.975,45.525,0,0,62.717-8.163,104.045-32.237-.081.918-.15,1.847-.219,2.8-13.132,13.736-44.962,45.678-64.4,54.114,0,0,38.959-16.173,63.533-35.9-.931,19.156-2.875,39.941-13.178,45.536-13.3,7.223-31.048,13.845-31.669,19.255s51.85-11.441,51.85-8.436c0,.984,2.369,3.071,5.75,5.387v100.229ZM1124.144,756.9a1.681,1.681,0,0,0-.15-.47l1.15.35ZM412.341,857.7l-10.1,1.093,4.358,1.694-12.212,2.371c-26.6-12.829-26.6-18.7-26.6-18.7s19.273,12.862,44.525,13.539Zm-35.8,11.758c-2.461.8-4.91,1.617-7.337,2.437a28.548,28.548,0,0,1-3.059-9.682,102.7,102.7,0,0,0,10.4,7.245Z" transform="translate(-185.3 -494.15)" fill="#122423"/>
      </g>
      <g id="Calque_12" data-name="Calque 12" transform="translate(0.057 182.896)">
        <path id="Tracé_2444" data-name="Tracé 2444" d="M1758.97,519.871c-3.576-21.571,1.15-21.571-7.164-35.187s3.588-13.616-19.112-30.073a141.443,141.443,0,0,0-13.937-9.048c1.713-5.092.966-5,2.6-10.25,3.082-9.977-22.1-7.376-28.668-24.4s-14.328-15.889-28.07-32.346-37.614-19.867-43.594-23.833-23.884-2.273-34.636-9.649-40.6-6.808-51.31-6h0c-5.819-6.557-11.384-12.731-11.384-12.731s-6.578-18.162-13.8-18.719-25.678,6.808-34.636,9.07-31.048-.568-45.376,7.944-32.2.568-43.594,5.114-22.7,2.273-29.9,10.786-28.07,10.206-34.636,20.992-8.36,37.449-2.99,50.508-1.15,22.948,6.578,28.194c-13.8,5.289-29.266,23.44-28.668,26.849s-14.949,11.922-14.949,21.56-3.588,26.674,2.978,32.346,2.99,22.14,6.578,34.619,25.678,19.189,25.678,23.211,3.576,25.593,8.36,34.674,14.328,22.129,21.492,22.129,10.752,7.945,18.514,8.513c5.922.437,17.732,7.125,26.713,9.66.265.35.517.677.759.962,11.936,14.6,39.408,8.677,45.388,17.189s44.387,8.119,44.456,8.119c7.21,12.337,12.132,22.7,12.868,28.773,2.978,24.959-7.762,168.538-28.668,199.748-.564.852-1.15,1.661-1.667,2.459-8.05,1.311-21.182.328-21.182.328-.472-3.552,7.958-10.829,7.958-10.829-6.7-.1-18.594,11.562-18.594,11.562,1.345-2.273-.667-8.01-.667-8.01-2.208,6.447-11.5,7.376-11.5,7.376-.966-1.781.575-13.485.575-13.485-5.267,3.552-6.129,14.206-6.129,14.206-1.828-.087-7.578-6.731-7.578-6.731-.667,3.453-11.5,6.917-11.5,6.917,1.345-3.737.748-12.283.748-12.283-.782,6.109-10.418,10.644-10.418,10.644,1.437-13.572-2.691-17.484-2.691-17.484s1.345,3.278,0,11.835-10.246,10.108-10.246,10.108c-2.116-2.546,1.621-10.283,1.621-10.283-4.37,2.743-8.429,11.2-8.429,11.2-3.737-8.841,5.267-23.134,5.267-23.134-4.6,1.639-10.062,19.67-10.062,19.67,0-13.2-10.924-21.4-10.924-21.4s8.337,11.1,7.589,16.993-10.349,9.682-10.349,9.682c3.059-4.371-1.541-7.278-1.541-7.278.966,5.366-6.9,8.371-6.9,8.371-1.644-2.732,2.978-7.464,2.978-7.464-3.358,0-9.452,8.316-9.452,8.316-5.669-5.9,2.208-10.862,2.208-10.862-9,.5-8.9,11.693-8.9,11.693-1.15-.131-8.05-14.337-8.05-14.337s3.013,7.78,2.2,10.7a8.14,8.14,0,0,1-3.726,4.458c-1.529-1.093,0-3.858,0-3.858s-2.783,2.634-4.945,4.568-9.9.546-9.9.546c0-14.053-5.186-18.872-5.186-18.872,4.025,7.234-1.345,22.948-1.345,22.948-1.92-.918-2.392-16.7-2.392-16.7-2.737,2.459-5.324,20.763-5.324,20.763-4.025.82-14.685-2.076-14.685-2.076-.586,4.065-15.8,7.54-15.8,7.54,5.025-18.031-.276-25.134-.276-25.134,1.587,6.141-4.082,24.751-4.082,24.751s-2.231.175-6.072-6.972,3.68-11.791,3.68-11.791c-9.5,0-13.5,21.6-13.5,21.6-3.312.4-5.9-3.551-5.9-3.551-.6,4.579-7.934,7.551-7.934,7.551-4.922-5.016,1.15-16.84,1.15-16.84-3.933.513-10.211,19.4-10.211,19.4-3.45.273-8.762-6.152-8.762-6.152-2.3,5.988-16.249,10.654-16.249,10.654-1.725-3.551,6.9-8.043,6.9-8.043-7.279-1.344-38.856,16.993-38.856,16.993,4.381-6.557,3.783-17.856,3.783-17.856-1.667,9.605-12.1,18.8-12.1,18.8-4.358-5.464,7.383-14.731,7.383-14.731-9.418-.208-16.168,17.135-16.168,17.135-1.23,0-1.15-4.5-1.15-4.5-1.667,2.994-14.087,8.054-14.087,8.054-3.024-4.644,9.935-10.01,9.935-10.01-7.785-1.825-23.3,12.469-23.3,12.469,2.737-11.059,0-17.615,0-17.615.287,4.1-5.312,16.118-5.312,16.118-1.15-13.529-8.337-16.392-8.337-16.392s6.612,8.382,5.462,13.386-17.778,10.808-18.33,10.993h0c3.45-3.879-.954-6.557-.954-6.557,1.955,1.967-16.72,9.562-17.053,9.693h0c.276-2.787-1.759-7.07-1.759-7.07-.333,3.759-12.143,9.179-12.408,9.3h0c-4.393-1.519,3.45-15.375,3.45-15.375-5.83.874-11.12,16.392-12.408,16.654h0c-1.288.12-4.991-3.748-4.991-3.748,1.863,3.464-13.983,5.967-15.9,6.251h-.172c13.017-7.748,5.324-14.829,5.324-14.829s2.3,4.185-2.852,7.169-24.344,9.2-24.712,9.321h0c-2.472-1.191,8.049-12.119,8.049-12.119-3.174.568-17.49,11.387-26.034,12.316l-2.564-.066c-7.808-1.585,5.4-6.065,5.4-6.065-6.267-2.885-37.729,3.027-38.281,3.136h0c1.15-.885,5.152-4.95,5.152-4.95-5.106,1.257-28.829,1.344-29.5,1.344h0c5.347-3.934,9.015-15,9.015-15s-1.909,2.186-6.129,6.557-18.525,5.682-18.767,5.715h0c5.554-3.934,0-6.622,0-6.622-1.345,3.1-31.048,0-31.048,0-1.633-2.819,2.875-6.644,2.875-6.644-2.587-.634-7.762,4.01-7.762,4.01,0-2.371,5.175-10.753,5.175-10.753-2.875,1.279-9.682,10.108-9.682,10.108s-5.336,1.005-5.842-2.459,5.842-3.552,5.842-3.552c-3.737-2.087-14.179,2.011-14.179,2.011,7.083-5.289,6.221-11.474,6.221-11.474-.954,5.551-13.8,10.283-13.8,10.283,3.933-4.917.679-7.1.679-7.1a3.8,3.8,0,0,1-.966,3.65c-1.621,1.912-8.624,2.732-8.624,2.732a7.078,7.078,0,0,0,3.737-6.83c-2.967,3.005-17.824,3.726-17.824,3.726-.954-4,9.878-8.556,9.878-8.556-3.162-1.366-18.215,6.644-18.215,6.644a7.066,7.066,0,0,0,2.5-4.961c-2.783,3.825-18.778,1.727-18.778,1.727,1.529-4.273,11.212-2.732,11.212-2.732-3.358-4.273-29.9-1.912-29.9-1.912,5.554-2.546,4.979-6.557,4.979-6.557l-2.208,2.1c-2.2,2.1-23.757.273-23.757.273l10.441-3.005c-4.508.732-24.436-1.727-24.436-1.727-.287-4.2,6.52-7.562,6.52-7.562-3.162-.907-14.765,3.825-14.765,3.825,5.75-6.01-4.209-7.923-4.209-7.923s5.175,2,1.817,5.278-45.272-3.092-45.272-3.092c2.012-8.065,14.224-10.25,14.224-10.25-6.463-1.912-20.7,7.649-20.7,7.649a12.255,12.255,0,0,0,.725-9.015s-.725,5.333-3.6,6.83-8.187.962-8.187.962a3.847,3.847,0,0,0,3.162-4.24c-.437,2.732-14.374,2.874-14.374,2.874,7.9-2.054,8.187-10.25,8.187-10.25-2.7,5.715-19.169,5.519-19.169,5.519a7.438,7.438,0,0,0-.839-7.813c.1.131.782,1.093,0,5.081-.862,4.273-13.029.82-13.029.82a10.249,10.249,0,0,0,4.312-1.279c-3.162.82-7.187-1.825-10.441-3.366s-15.052.82-15.052.82a9.694,9.694,0,0,0,1.219-5.256c-2.3,3.2-21.021,4.8-21.021,4.8-3.806-5.835,4.956-14.02,4.956-14.02-3.266-1.005-10.832,8.742-10.832,8.742a11.615,11.615,0,0,0-1.679-11.66s1.564,4.153,0,7.649-6.566,4.863-6.566,4.863c2.4-1.737,2.978-7.016,2.978-7.016-.2,3.191-15.513,6.283-15.513,6.283,2.035-1.453,2.668-6.283,2.668-6.283-3.254,3.912-25.3,1.366-25.3,1.366a23.7,23.7,0,0,0,0-14.742c-.966,7.846-7.923,12.96-7.923,12.96,2.415-7.376,0-11.343,0-11.343-2.047,9.682-8.3,11.212-8.3,11.212a8.2,8.2,0,0,0,1-4.513c-2.829,4.535-10.775,2.874-10.775,2.874,0-3.42,10.775-7.245,10.775-7.245-7.612-.4-23.424,6.283-23.424,6.283,1.713-1.333,2.852-7.78,2.852-7.78-2.518,3.4-15.363,5.464-15.363,5.464-1-4.917,9.751-13.3,9.751-13.3-6.06.459-20.814,13.026-20.814,13.026,1.725-2.732,1.288-7.649,1.288-7.649-2.438,7.245-23.136,4.087-23.136,4.087,1-3.42,5.75-3.278,5.75-3.278-6.612-2.295-32.773.8-32.773.8,4.876-2.186,2.564-7.649,2.564-7.649-2.6,6.557-26.529.4-26.529.4.149-.459.264-.918.368-1.366,2.242-.12,3.45-.208,3.45-.208-1.15-.153-2.219-.328-3.323-.5a14.307,14.307,0,0,0-1.518-9.19c.529,1.093,1.15,3.541-.471,7.289a7.4,7.4,0,0,1-.885,1.464,246.162,246.162,0,0,1-66.259-20.763c-.069-.59-.115-.929-.115-.929a7.593,7.593,0,0,1,0,.9c-73.193-34.881-107.725-95.213-107.725-95.213C253.616,788,358.224,819.225,358.224,819.225c-74.826-26-115.061-108.851-115.061-108.851,32.2,22.7,84.5,26.106,84.5,26.106-57.945-29.5-93.351-109.518-93.351-109.518,28.173,14.206,49.09,19.856,49.09,19.856-30.576-16.457-74.837-93.061-74.837-93.061,15.283,5.672,57.128,11.911,57.128,11.911-24.942-7.945-86.911-79.445-86.911-79.445,16.9,74.91-70.007,162.3-70.007,162.3,12.074-2.273,59.555-29.5,59.555-29.5-1.587,21.56-63.119,94.765-63.119,94.765,27.035-5.114,59.095-24.369,59.095-24.369-2.415,26.106-99.79,79.445-99.79,79.445,39.431,6.24,95.766-18.162,95.766-18.162,0,26.106-124.732,79.3-124.732,79.3,33.8,10.644,113.463-14.61,113.463-14.61,1.633,22.1-129.562,65.26-129.562,65.26,78.195,9.977,148.145-17.484,158.115-21.615.609,9.726,1.15,27.134-.977,43.624-16.708,4.906-33.187,9.146-33.187,9.146-1.886-1.7,5.52-10.207,5.52-10.207-4.013,1.486-49.642,23.659-49.642,23.659,1.541-1.639,3.45-12.753,3.45-12.753s-5.209,5.3-15.489,10.611-69.317,22.14-69.317,22.14l1.633-4.917C16.674,944.348,0,953.593,0,953.593c0,.175.092,50.643.092,50.643H1609.986V941.255a.845.845,0,0,0,.287-.317,1.346,1.346,0,0,0-.287-1.366V930.5c0,3.737-9.51,1.464-9.51,1.464,2.875-4.284,7-15.572,7-15.572s-5.175,11.922-9.3,12.84a26.3,26.3,0,0,1-5.129.426q-2.426-1.366-5.025-2.918a27.388,27.388,0,0,1,5.566-1.7c-2.415-1.169-5.819-1.016-8.981-.426-2.3-1.475-4.6-3.082-6.969-4.83a52.684,52.684,0,0,0-1.6-16.228c.6,4.043-.655,8.961-2.231,13.212-.954-.787-1.909-1.6-2.852-2.448.655-1.759,1.15-2.961,1.15-2.961a9.013,9.013,0,0,0-2.208,2.033l-.9-.82c-19.1-18.162-20.894-99.88-17.916-133.93,1.541-17.572,2.61-41.2,5.175-64.976,7.544-.852,6.175-16.741,15.731-20.151s16.72-32.914,26.276-38.75c4.186-2.557,5.75-8.83,6.509-16.545a61.287,61.287,0,0,1,16.179-7.125c17.318-5.1,9.556-3.41,26.276-10.786s22.7-19.856,29.266-27.232,5.37-12.6,15.524-14.206,15.524-2.776,15.524-2.776,7.164,5.1,23.9-11.354,14.328-7.945,19.1-19.856S1762.558,541.431,1758.97,519.871ZM234.654,890.966c-6.256-7.8-11.9-15.638-16.317-22.074-.23-3.65-.437-7.19-.621-10.545,25.206,11.1,56.726,17.233,87.049,20.511-15.455,4.568-39.994,9.5-39.994,9.5,1.437-2.994,9.429-8.742,9.429-8.742C270.8,880.016,252.006,885.633,234.654,890.966Zm80.265-11.114,4.945.415a61.749,61.749,0,0,1-6.509,4.524Zm26.161,1.738c4.876.229,9.625.393,14.213.5a100.166,100.166,0,0,1-14.857,2.186,13.121,13.121,0,0,0,.644-2.688Zm22.171.656h4.416c-3.174.852-5.29,1.53-5.29,1.53a5.169,5.169,0,0,0,.874-1.53Zm23.527,0c3.1,0,5.991-.131,8.624-.208-3.45,2.284-11.327,4.021-11.327,4.021-.54-1.246.874-2.644,2.7-3.857Zm9.912-.251q5.175-.164,8.774-.35c-3.691,3.136-9.912,4.032-9.912,4.032a14.936,14.936,0,0,0,1.173-3.726Z" transform="translate(0 -307.603)" fill="#1f1f2e"/>
      </g>
    </g>
  </g>
</svg>
